<?xml version="1.0" standalone="no"?><!DOCTYPE svg PUBLIC "-//W3C//DTD SVG 1.1//EN" "http://www.w3.org/Graphics/SVG/1.1/DTD/svg11.dtd"><svg height="733" node-id="1" sillyvg="true" template-height="733" template-width="1001" version="1.1" viewBox="0 0 1001 733" width="1001" xmlns="http://www.w3.org/2000/svg" xmlns:xlink="http://www.w3.org/1999/xlink"><defs node-id="190"><linearGradient gradientUnits="objectBoundingBox" id="linearGradient-1" node-id="7" spreadMethod="pad" x1="0.5" x2="0.5" y1="0" y2="1"><stop offset="0" stop-color="#119ff0"></stop><stop offset="1" stop-color="#78c4ff"></stop></linearGradient><linearGradient gradientUnits="objectBoundingBox" id="linearGradient-4" node-id="11" spreadMethod="pad" x1="0.5454639" x2="0.4630459" y1="0" y2="1"><stop offset="0" stop-color="#5216ff"></stop><stop offset="1" stop-color="#2951e6"></stop></linearGradient><linearGradient gradientUnits="objectBoundingBox" id="linearGradient-7" node-id="15" spreadMethod="pad" x1="0.5" x2="0.5" y1="0" y2="1"><stop offset="0" stop-color="#4d67fc"></stop><stop offset="1" stop-color="#5514f6"></stop></linearGradient><linearGradient gradientUnits="objectBoundingBox" id="linearGradient-10" node-id="19" spreadMethod="pad" x1="0.5" x2="0.5" y1="0" y2="1"><stop offset="0" stop-color="#e6faef"></stop><stop offset="1" stop-color="#67c3fe"></stop></linearGradient><linearGradient gradientUnits="objectBoundingBox" id="linearGradient-17" node-id="25" spreadMethod="pad" x1="0.4925496" x2="0.5" y1="0" y2="1"><stop offset="0" stop-color="#2d9ef4"></stop><stop offset="1" stop-color="#0809ed"></stop></linearGradient><mask height="278.79294" id="mask-3" maskUnits="userSpaceOnUse" node-id="48" width="161.1966" x="76.45512" y="359.5408"><path d="M 263.80 328.80 L 251.60 328.80 L 239.90 329.30 L 228.80 330.30 L 218.20 331.80 L 208.10 333.70 L 198.60 336.10 L 189.40 338.90 L 180.70 342.10 L 172.40 345.80 L 164.50 349.80 L 157.00 354.20 L 149.70 359.10 L 71.80 627.80 L 264.70 628.30 L 263.80 328.80 Z" fill="#ffffff" fill-rule="evenodd" node-id="225" stroke="none" target-height="299.5" target-width="192.90001" target-x="71.8" target-y="328.8"></path></mask><mask height="54.352753" id="mask1" maskUnits="userSpaceOnUse" node-id="229" width="140.93451" x="126.55414" y="317.11328"><path d="M 263.80 328.80 L 251.60 328.80 L 239.90 329.30 L 228.80 330.30 L 218.20 331.80 L 208.10 333.70 L 198.60 336.10 L 189.40 338.90 L 180.70 342.10 L 172.40 345.80 L 164.50 349.80 L 157.00 354.20 L 149.70 359.10 L 71.80 627.80 L 264.70 628.30 L 263.80 328.80 Z" fill="#ffffff" fill-rule="evenodd" node-id="233" stroke="none" target-height="299.5" target-width="192.90001" target-x="71.8" target-y="328.8"></path></mask><mask height="551.3371" id="mask-6" maskUnits="userSpaceOnUse" node-id="54" width="135.7685" x="652.55927" y="95.29683"><path d="M 671.00 95.40 L 699.90 97.50 L 734.50 134.50 L 797.80 637.60 L 699.90 646.50 Z" fill="#ffffff" fill-rule="evenodd" node-id="240" stroke="none" target-height="551.1" target-width="126.79999" target-x="671" target-y="95.4"></path></mask><mask height="16.951149" id="mask2" maskUnits="userSpaceOnUse" node-id="244" width="57.424805" x="659.0879" y="87.05715"><path d="M 671.00 95.40 L 699.90 97.50 L 734.50 134.50 L 797.80 637.60 L 699.90 646.50 Z" fill="#ffffff" fill-rule="evenodd" node-id="248" stroke="none" target-height="551.1" target-width="126.79999" target-x="671" target-y="95.4"></path></mask><mask height="277.62613" id="mask-9" maskUnits="userSpaceOnUse" node-id="60" width="76.97534" x="849.6715" y="358.52237"><path d="M 825.70 409.30 L 857.10 388.90 L 875.10 396.60 L 908.00 627.30 L 869.80 627.30 Z" fill="#ffffff" fill-rule="evenodd" node-id="255" stroke="none" target-height="238.4" target-width="82.29999" target-x="825.7" target-y="388.9"></path></mask><mask height="58.47397" id="mask3" maskUnits="userSpaceOnUse" node-id="259" width="18.930908" x="861.9324" y="400.9171"><path d="M 825.70 409.30 L 857.10 388.90 L 875.10 396.60 L 908.00 627.30 L 869.80 627.30 Z" fill="#ffffff" fill-rule="evenodd" node-id="263" stroke="none" target-height="238.4" target-width="82.29999" target-x="825.7" target-y="388.9"></path></mask><mask height="258.91037" id="mask4" maskUnits="userSpaceOnUse" node-id="267" width="60.369934" x="820.69794" y="367.35898"><path d="M 825.70 409.30 L 857.10 388.90 L 875.10 396.60 L 908.00 627.30 L 869.80 627.30 Z" fill="#ffffff" fill-rule="evenodd" node-id="271" stroke="none" target-height="238.4" target-width="82.29999" target-x="825.7" target-y="388.9"></path></mask><mask height="73.442245" id="mask-12" maskUnits="userSpaceOnUse" node-id="67" width="124.342285" x="710.20465" y="197.04353"><path d="M 725.90 221.20 L 748.30 212.80 L 816.40 243.30 L 866.80 608.00 L 790.10 597.70 Z" fill="#ffffff" fill-rule="evenodd" node-id="278" stroke="none" target-height="395.2" target-width="140.89996" target-x="725.9" target-y="212.8"></path></mask><mask height="239.03741" id="mask-14" maskUnits="userSpaceOnUse" node-id="73" width="46.346985" x="726.9955" y="397.17578"><path d="M 713.40 442.10 L 732.90 430.20 L 758.90 430.20 L 789.70 614.50 L 725.50 614.50 Z" fill="#ffffff" fill-rule="evenodd" node-id="285" stroke="none" target-height="184.29999" target-width="76.29999" target-x="713.4" target-y="430.2"></path></mask><mask height="423.75272" id="mask-16" maskUnits="userSpaceOnUse" node-id="77" width="108.877075" x="729.30896" y="225.7537"><path d="M 725.50 221.20 L 797.10 256.70 L 845.30 614.50 L 755.90 614.50 Z" fill="#ffffff" fill-rule="evenodd" node-id="292" stroke="none" target-height="393.3" target-width="119.79999" target-x="725.5" target-y="221.2"></path></mask><mask height="323.1167" id="mask-19" maskUnits="userSpaceOnUse" node-id="82" width="150.02661" x="939.19604" y="522.47504"><path d="M 1057.30 518.10 L 1049.40 518.00 L 1042.10 518.30 L 1035.50 519.00 L 1029.50 520.10 L 1024.10 521.50 L 1019.20 523.30 L 1014.70 525.30 L 870.50 1028.20 L 1006.70 1028.30 L 1057.30 518.10 Z" fill="#ffffff" fill-rule="evenodd" node-id="299" stroke="none" target-height="510.30005" target-width="186.80005" target-x="870.5" target-y="518"></path></mask><mask height="323.11667" id="mask-21" maskUnits="userSpaceOnUse" node-id="87" width="103.87613" x="29.802471" y="-28.423683"><path d="M 76.90 239.60 L 76.90 257.50 L -0.00 257.50 L 4.30 239.60 L 76.90 239.60 Z M 79.60 212.90 L 78.30 230.80 L 7.00 230.80 L 11.00 212.90 L 79.60 212.90 Z M 84.20 186.30 L 82.50 204.20 L 13.50 204.20 L 17.90 186.30 L 84.20 186.30 Z M 86.60 159.70 L 82.60 177.60 L 20.40 177.60 L 24.80 159.70 L 86.60 159.70 Z M 90.20 133.10 L 90.20 151.00 L 26.80 151.00 L 31.50 133.10 L 90.20 133.10 Z M 92.30 106.50 L 90.20 124.40 L 34.40 124.40 L 38.90 106.50 L 92.30 106.50 Z M 99.90 79.90 L 94.40 98.80 L 41.00 97.80 L 45.70 79.90 L 99.90 79.90 Z M 100.50 53.20 L 94.00 71.10 L 48.50 71.10 L 52.30 53.20 L 100.50 53.20 Z M 101.60 26.60 L 101.60 44.50 L 55.00 44.50 L 59.40 26.60 L 101.60 26.60 Z M 109.20 0.00 L 109.20 17.90 L 61.60 17.90 L 67.00 0.00 L 109.20 0.00 Z" fill="#ffffff" fill-rule="evenodd" node-id="306" stroke="none" target-height="257.5" target-width="109.2" target-x="-0" target-y="0"></path></mask><mask height="135.88403" id="mask-23" maskUnits="userSpaceOnUse" node-id="92" width="47.889496" x="208.83807" y="471.06543"><path d="M 304.40 429.50 L 233.40 457.30 L 201.10 592.50 L 286.80 592.50 Z" fill="#ffffff" fill-rule="evenodd" node-id="313" stroke="none" target-height="163" target-width="103.29999" target-x="201.1" target-y="429.5"></path></mask><mask height="209.87149" id="mask5" maskUnits="userSpaceOnUse" node-id="317" width="32.539078" x="255.3463" y="411.88974"><path d="M 304.40 429.50 L 233.40 457.30 L 201.10 592.50 L 286.80 592.50 Z" fill="#ffffff" fill-rule="evenodd" node-id="321" stroke="none" target-height="163" target-width="103.29999" target-x="201.1" target-y="429.5"></path></mask><mask height="209.87149" id="mask6" maskUnits="userSpaceOnUse" node-id="325" width="32.539063" x="261.41864" y="411.88974"><path d="M 304.40 429.50 L 233.40 457.30 L 201.10 592.50 L 286.80 592.50 Z" fill="#ffffff" fill-rule="evenodd" node-id="329" stroke="none" target-height="163" target-width="103.29999" target-x="201.1" target-y="429.5"></path></mask><mask height="209.87149" id="mask7" maskUnits="userSpaceOnUse" node-id="333" width="32.539093" x="267.491" y="411.88974"><path d="M 304.40 429.50 L 233.40 457.30 L 201.10 592.50 L 286.80 592.50 Z" fill="#ffffff" fill-rule="evenodd" node-id="337" stroke="none" target-height="163" target-width="103.29999" target-x="201.1" target-y="429.5"></path></mask><mask height="209.87149" id="mask8" maskUnits="userSpaceOnUse" node-id="341" width="32.539063" x="273.56335" y="411.88974"><path d="M 304.40 429.50 L 233.40 457.30 L 201.10 592.50 L 286.80 592.50 Z" fill="#ffffff" fill-rule="evenodd" node-id="345" stroke="none" target-height="163" target-width="103.29999" target-x="201.1" target-y="429.5"></path></mask><mask height="472.45615" id="mask-25" maskUnits="userSpaceOnUse" node-id="127" width="436.54813" x="284.806" y="-10.773956"><path d="M 608.80 32.30 L 614.80 33.70 L 620.10 35.60 L 625.00 37.90 L 629.40 40.70 L 633.50 44.00 L 637.10 47.80 L 640.40 52.10 L 643.30 56.90 L 645.90 62.50 L 648.00 68.70 L 649.80 75.70 L 651.10 83.60 L 653.50 106.80 L 659.40 173.40 L 671.30 318.60 L 692.50 588.50 L 692.70 595.60 L 692.30 601.80 L 691.40 607.40 L 690.00 612.20 L 688.30 616.50 L 686.10 620.30 L 683.50 623.60 L 680.50 626.50 L 677.10 629.00 L 673.20 631.20 L 668.70 632.90 L 663.60 634.30 L 657.70 635.20 L 651.10 635.60 L 604.60 635.80 L 379.90 635.40 L 331.40 635.70 L 324.50 635.40 L 320.10 634.90 L 316.50 634.10 L 313.50 633.00 L 311.50 631.80 L 309.70 630.30 L 308.20 628.50 L 306.90 626.30 L 305.60 623.20 L 304.70 619.00 L 304.10 613.70 L 304.00 608.30 L 304.80 593.20 L 308.60 555.60 L 359.60 66.90 L 361.60 60.30 L 364.00 54.60 L 366.60 49.70 L 369.50 45.60 L 372.70 42.10 L 376.10 39.10 L 379.90 36.70 L 383.90 34.80 L 388.40 33.50 L 393.20 32.60 L 398.60 32.30 L 435.90 32.50 L 437.30 33.80 L 438.20 35.30 L 442.00 43.30 L 444.30 45.60 L 446.80 46.20 L 568.50 46.20 L 569.80 46.00 L 571.70 44.80 L 572.80 43.30 L 576.10 35.30 L 577.20 33.80 L 579.20 32.50 L 608.80 32.30 Z" fill="#ffffff" fill-rule="evenodd" node-id="352" stroke="none" target-height="603.5" target-width="388.7" target-x="304" target-y="32.3"></path></mask><mask height="143.33072" id="mask-29" maskUnits="userSpaceOnUse" node-id="141" width="380.61377" x="315.5631" y="313.60205"><path d="M 494.80 308.90 L 643.90 308.90 L 646.20 309.10 L 648.00 309.80 L 649.50 310.90 L 650.80 312.40 L 651.70 314.50 L 652.40 317.30 L 653.10 331.00 L 655.30 361.20 L 661.20 429.50 L 661.10 431.70 L 660.50 433.50 L 659.60 435.00 L 658.30 436.20 L 656.60 437.10 L 654.30 437.70 L 651.30 438.00 L 358.70 438.00 L 356.00 437.30 L 353.90 436.40 L 352.40 435.20 L 351.40 433.60 L 350.80 431.80 L 350.60 429.50 L 351.00 420.10 L 353.50 388.90 L 360.00 315.50 L 360.40 313.50 L 361.30 312.00 L 362.50 310.70 L 364.30 309.80 L 366.70 309.10 L 369.90 308.90 L 494.80 308.90 Z" fill="#ffffff" fill-rule="evenodd" node-id="359" stroke="none" target-height="129.1" target-width="310.6" target-x="350.6" target-y="308.9"></path></mask><mask height="41.413055" id="mask9" maskUnits="userSpaceOnUse" node-id="363" width="42.316986" x="419.50717" y="316.9414"><path d="M 494.80 308.90 L 643.90 308.90 L 646.20 309.10 L 648.00 309.80 L 649.50 310.90 L 650.80 312.40 L 651.70 314.50 L 652.40 317.30 L 653.10 331.00 L 655.30 361.20 L 661.20 429.50 L 661.10 431.70 L 660.50 433.50 L 659.60 435.00 L 658.30 436.20 L 656.60 437.10 L 654.30 437.70 L 651.30 438.00 L 358.70 438.00 L 356.00 437.30 L 353.90 436.40 L 352.40 435.20 L 351.40 433.60 L 350.80 431.80 L 350.60 429.50 L 351.00 420.10 L 353.50 388.90 L 360.00 315.50 L 360.40 313.50 L 361.30 312.00 L 362.50 310.70 L 364.30 309.80 L 366.70 309.10 L 369.90 308.90 L 494.80 308.90 Z" fill="#ffffff" fill-rule="evenodd" node-id="367" stroke="none" target-height="129.1" target-width="310.6" target-x="350.6" target-y="308.9"></path></mask><mask height="9.29483" id="mask-31" maskUnits="userSpaceOnUse" node-id="157" width="9.389313" x="384.9601" y="268.12463"><path d="M 400.10 275.40 L 399.40 279.00 L 398.70 280.60 L 396.40 283.20 L 393.30 285.00 L 389.70 285.70 L 386.00 285.00 L 382.90 283.20 L 380.60 280.60 L 379.90 279.00 L 379.20 275.40 L 379.90 271.70 L 380.60 270.10 L 382.90 267.50 L 386.00 265.70 L 389.70 265.00 L 393.30 265.70 L 396.40 267.50 L 398.70 270.10 L 399.40 271.70 L 400.10 275.40 Z" fill="#ffffff" fill-rule="evenodd" node-id="374" stroke="none" target-height="20.700012" target-width="20.899994" target-x="379.2" target-y="265"></path></mask><mask height="21.687927" id="mask10" maskUnits="userSpaceOnUse" node-id="378" width="21.908356" x="378.7006" y="276.1285"><path d="M 400.10 275.40 L 399.40 279.00 L 398.70 280.60 L 396.40 283.20 L 393.30 285.00 L 389.70 285.70 L 386.00 285.00 L 382.90 283.20 L 380.60 280.60 L 379.90 279.00 L 379.20 275.40 L 379.90 271.70 L 380.60 270.10 L 382.90 267.50 L 386.00 265.70 L 389.70 265.00 L 393.30 265.70 L 396.40 267.50 L 398.70 270.10 L 399.40 271.70 L 400.10 275.40 Z" fill="#ffffff" fill-rule="evenodd" node-id="382" stroke="none" target-height="20.700012" target-width="20.899994" target-x="379.2" target-y="265"></path></mask><mask height="9.875732" id="mask-33" maskUnits="userSpaceOnUse" node-id="176" width="9.978851" x="359.4144" y="451.5829"><path d="M 375.50 459.30 L 374.80 463.10 L 374.00 464.80 L 371.60 467.60 L 368.30 469.50 L 364.40 470.20 L 360.50 469.50 L 357.30 467.60 L 354.80 464.80 L 354.00 463.10 L 353.30 459.30 L 354.00 455.40 L 354.80 453.70 L 357.30 450.90 L 360.50 449.00 L 364.40 448.30 L 368.30 449.00 L 371.60 450.90 L 374.00 453.70 L 374.80 455.40 L 375.50 459.30 Z" fill="#ffffff" fill-rule="evenodd" node-id="389" stroke="none" target-height="21.900024" target-width="22.200012" target-x="353.3" target-y="448.3"></path></mask><mask height="23.043396" id="mask11" maskUnits="userSpaceOnUse" node-id="393" width="23.283966" x="352.76184" y="460.087"><path d="M 375.50 459.30 L 374.80 463.10 L 374.00 464.80 L 371.60 467.60 L 368.30 469.50 L 364.40 470.20 L 360.50 469.50 L 357.30 467.60 L 354.80 464.80 L 354.00 463.10 L 353.30 459.30 L 354.00 455.40 L 354.80 453.70 L 357.30 450.90 L 360.50 449.00 L 364.40 448.30 L 368.30 449.00 L 371.60 450.90 L 374.00 453.70 L 374.80 455.40 L 375.50 459.30 Z" fill="#ffffff" fill-rule="evenodd" node-id="397" stroke="none" target-height="21.900024" target-width="22.200012" target-x="353.3" target-y="448.3"></path></mask></defs><g node-id="669"><g node-id="670"><g node-id="671"><path d="M 293.70 221.20 L 268.70 220.80 L 222.00 220.70 L 143.60 221.20 L 144.80 214.70 L 146.40 208.80 L 148.50 203.60 L 150.90 198.90 L 153.80 194.80 L 157.10 191.10 L 160.80 187.80 L 164.90 184.90 L 169.60 182.50 L 174.70 180.40 L 176.40 175.10 L 178.30 170.50 L 180.60 166.60 L 183.10 163.10 L 185.90 160.10 L 189.00 157.60 L 192.40 155.50 L 196.10 153.80 L 200.20 152.60 L 204.80 151.70 L 209.90 151.40 L 215.50 151.50 L 220.60 152.20 L 225.30 153.40 L 229.50 155.00 L 233.40 157.10 L 237.00 159.70 L 240.30 162.80 L 243.30 166.40 L 246.10 170.60 L 248.50 175.40 L 256.10 176.50 L 262.70 177.90 L 268.50 179.70 L 273.50 181.80 L 277.80 184.30 L 281.50 187.00 L 284.70 190.00 L 287.40 193.30 L 289.60 196.90 L 291.40 200.80 L 292.70 205.20 L 293.60 210.00 L 293.90 215.30 L 293.70 221.20 Z" fill="#5bf3fe" fill-rule="evenodd" group-id="1,2,3" id="路径-253" node-id="40" stroke="none" target-height="69.8" target-width="150.29999" target-x="143.6" target-y="151.4"></path><path d="M 764.10 110.00 L 739.10 109.50 L 692.40 109.50 L 614.00 110.00 L 615.20 103.40 L 616.80 97.60 L 618.90 92.40 L 621.30 87.70 L 624.20 83.50 L 627.50 79.80 L 631.20 76.50 L 635.30 73.70 L 640.00 71.20 L 645.20 69.20 L 646.80 63.90 L 648.70 59.30 L 651.00 55.30 L 653.50 51.80 L 656.30 48.90 L 659.40 46.40 L 662.80 44.30 L 666.50 42.60 L 670.60 41.30 L 675.20 40.50 L 680.30 40.10 L 685.90 40.30 L 691.00 40.90 L 695.70 42.10 L 700.00 43.80 L 703.90 45.90 L 707.40 48.40 L 710.70 51.50 L 713.80 55.10 L 716.50 59.30 L 718.90 64.20 L 726.50 65.20 L 733.10 66.70 L 738.90 68.50 L 743.90 70.60 L 748.20 73.00 L 752.00 75.70 L 755.10 78.70 L 757.80 82.00 L 760.00 85.60 L 761.80 89.60 L 763.10 93.90 L 764.00 98.70 L 764.30 104.10 L 764.10 110.00 Z" fill="#a7ffff" fill-rule="evenodd" group-id="1,2,3" id="路径-253备份" node-id="41" stroke="none" target-height="69.9" target-width="150.29999" target-x="614" target-y="40.1"></path><path d="M 922.20 372.60 L 899.40 372.20 L 856.80 372.10 L 785.20 372.60 L 786.30 366.60 L 787.80 361.30 L 789.60 356.60 L 791.90 352.40 L 794.50 348.60 L 797.50 345.20 L 800.80 342.30 L 804.60 339.60 L 808.90 337.40 L 813.60 335.50 L 815.30 330.30 L 817.30 325.80 L 819.60 322.00 L 822.20 318.70 L 825.20 316.00 L 828.40 313.70 L 832.10 311.90 L 836.10 310.50 L 840.60 309.60 L 845.70 309.20 L 850.80 309.30 L 855.50 309.90 L 859.80 311.00 L 863.70 312.50 L 867.20 314.40 L 870.50 316.80 L 873.50 319.50 L 876.30 322.80 L 878.80 326.60 L 881.00 331.00 L 888.40 332.10 L 894.80 333.50 L 900.30 335.30 L 905.10 337.50 L 909.10 340.00 L 912.60 342.70 L 915.40 345.80 L 917.80 349.20 L 919.70 352.90 L 921.10 357.10 L 922.00 361.70 L 922.40 366.80 L 922.20 372.60 Z" fill="#5cf1ff" fill-rule="evenodd" group-id="1,2,3" id="路径-253备份-2" node-id="42" stroke="none" target-height="63.399994" target-width="137.20001" target-x="785.2" target-y="309.2"></path><path d="M 229.90 245.10 L 229.60 247.40 L 228.70 249.40 L 227.40 251.10 L 225.70 252.40 L 223.70 253.20 L 221.40 253.60 L 219.10 253.20 L 217.10 252.40 L 215.40 251.10 L 214.00 249.40 L 213.20 247.40 L 212.90 245.10 L 213.20 242.90 L 214.00 240.90 L 215.40 239.20 L 217.10 237.90 L 219.10 237.00 L 221.40 236.70 L 223.70 237.00 L 225.70 237.90 L 227.40 239.20 L 228.70 240.90 L 229.60 242.90 L 229.90 245.10 Z" fill="#00efcc" fill-rule="evenodd" group-id="1,2,3" id="椭圆形" node-id="43" stroke="none" target-height="16.90001" target-width="17" target-x="212.9" target-y="236.7"></path><path d="M 156.70 309.80 L 156.50 311.10 L 155.40 313.00 L 153.40 314.20 L 152.10 314.40 L 150.90 314.20 L 148.90 313.00 L 147.70 311.10 L 147.50 309.80 L 147.70 308.60 L 148.90 306.60 L 150.90 305.50 L 152.10 305.30 L 153.40 305.50 L 155.40 306.60 L 156.50 308.60 L 156.70 309.80 Z" fill="#90e2fa" fill-rule="evenodd" group-id="1,2,3" id="椭圆形" node-id="44" stroke="none" target-height="9.100006" target-width="9.199997" target-x="147.5" target-y="305.3"></path><path d="M 147.50 326.60 L 147.40 327.90 L 146.20 329.80 L 144.20 331.00 L 143.00 331.20 L 141.70 331.00 L 139.70 329.80 L 138.60 327.90 L 138.40 326.60 L 138.60 325.40 L 139.70 323.40 L 141.70 322.30 L 143.00 322.10 L 144.20 322.30 L 146.20 323.40 L 147.40 325.40 L 147.50 326.60 Z" fill="#90e2fa" fill-rule="evenodd" group-id="1,2,3" id="椭圆形备份-98" node-id="45" stroke="none" target-height="9.100006" target-width="9.100006" target-x="138.4" target-y="322.1"></path><path d="M 236.40 261.30 L 236.10 262.80 L 235.30 264.10 L 234.00 264.90 L 232.50 265.20 L 230.90 264.90 L 229.70 264.10 L 228.90 262.80 L 228.60 261.30 L 228.90 259.80 L 229.70 258.60 L 230.90 257.70 L 232.50 257.40 L 234.00 257.70 L 235.30 258.60 L 236.10 259.80 L 236.40 261.30 Z" fill="#00efcc" fill-rule="evenodd" group-id="1,2,3" id="椭圆形" node-id="46" stroke="none" target-height="7.8000183" target-width="7.799988" target-x="228.6" target-y="257.4"></path><g node-id="673"><g node-id="688"><path d="M 263.80 328.80 L 251.60 328.80 L 239.90 329.30 L 228.80 330.30 L 218.20 331.80 L 208.10 333.70 L 198.60 336.10 L 189.40 338.90 L 180.70 342.10 L 172.40 345.80 L 164.50 349.80 L 157.00 354.20 L 149.70 359.10 L 71.80 627.80 L 264.70 628.30 L 263.80 328.80 Z" fill="url(#linearGradient-1)" fill-rule="evenodd" group-id="1,2,3,5,20" node-id="415" stroke="none" target-height="299.5" target-width="192.90001" target-x="71.8" target-y="328.8"></path></g><g node-id="689"><path d="M 162.90 382.80 L 99.90 615.10 L 89.90 615.10 L 154.30 382.80 L 162.90 382.80 Z M 178.90 382.80 L 115.90 615.10 L 105.90 615.10 L 170.30 382.80 L 178.90 382.80 Z M 194.00 382.80 L 131.00 615.10 L 121.00 615.10 L 185.40 382.80 L 194.00 382.80 Z M 210.60 382.80 L 147.60 615.10 L 137.60 615.10 L 202.00 382.80 L 210.60 382.80 Z M 224.20 382.80 L 161.20 615.10 L 151.20 615.10 L 215.60 382.80 L 224.20 382.80 Z" fill="url(#linearGradient-4)" fill-rule="evenodd" group-id="1,2,3,5,21" id="形状结合" node-id="51" stroke="none" target-height="232.29999" target-width="134.29999" target-x="89.9" target-y="382.8"></path></g><path d="M 142.80 366.90 L 164.00 354.70 L 173.70 349.70 L 182.60 345.60 L 191.50 342.10 L 200.20 339.30 L 209.10 337.10 L 218.40 335.40 L 228.00 334.20 L 245.80 332.70 L 250.20 332.00 L 254.40 330.60 L 255.70 329.30 L 255.70 328.60 L 254.20 326.70 L 252.30 325.50 L 248.00 323.60 L 242.40 321.60 L 210.40 323.40 L 202.70 324.10 L 138.30 353.00 L 142.80 366.90 Z" fill="#5cf1ff" fill-rule="evenodd" group-id="1,2,3,5,22" id="路径-377" node-id="52" stroke="none" target-height="45.299988" target-width="117.399994" target-x="138.3" target-y="321.6"></path></g><g node-id="674"><g node-id="691"><path d="M 671.00 95.40 L 699.90 97.50 L 734.50 134.50 L 797.80 637.60 L 699.90 646.50 Z" fill="#4bc8fc" fill-rule="evenodd" group-id="1,2,3,6,23" node-id="429" stroke="none" target-height="551.1" target-width="126.79999" target-x="671" target-y="95.4"></path></g><g node-id="692"><path d="M 663.90 141.20 L 724.70 141.20 L 777.00 600.70 L 693.10 600.70 Z" fill="url(#linearGradient-7)" fill-rule="evenodd" group-id="1,2,3,6,24" node-id="434" stroke="none" target-height="459.5" target-width="113.099976" target-x="663.9" target-y="141.2"></path></g><path d="M 669.20 98.80 L 711.70 102.60 L 690.40 88.50 L 663.90 88.50 Z" fill="#96e1ff" fill-rule="evenodd" group-id="1,2,3,6,25" id="路径-245" node-id="58" stroke="none" target-height="14.099998" target-width="47.799988" target-x="663.9" target-y="88.5"></path></g><g node-id="675"><g node-id="694"><path d="M 825.70 409.30 L 857.10 388.90 L 875.10 396.60 L 908.00 627.30 L 869.80 627.30 Z" fill="#5d73cf" fill-rule="evenodd" group-id="1,2,3,7,26" node-id="444" stroke="none" target-height="238.4" target-width="82.29999" target-x="825.7" target-y="388.9"></path></g><g node-id="695"><path d="M 856.10 381.70 L 890.20 613.00 L 920.20 613.00 L 884.70 388.90 Z" fill="url(#linearGradient-10)" fill-rule="evenodd" group-id="1,2,3,7,27" node-id="449" stroke="none" target-height="231.29999" target-width="64.10004" target-x="856.1" target-y="381.7"></path></g><g node-id="696"><path d="M 869.90 444.90 L 878.20 446.70 L 879.30 454.50 L 871.20 453.80 L 869.90 444.90 Z M 866.90 431.50 L 875.10 433.30 L 876.20 441.10 L 868.20 440.30 L 866.90 431.50 Z M 865.40 418.00 L 873.60 419.80 L 874.70 427.60 L 866.60 426.90 L 865.40 418.00 Z M 863.50 405.80 L 871.80 407.60 L 872.90 415.40 L 864.80 414.60 L 863.50 405.80 Z" fill="#2694ff" fill-rule="evenodd" group-id="1,2,3,7,28" id="形状结合" node-id="64" stroke="none" target-height="48.700012" target-width="15.799988" target-x="863.5" target-y="405.8"></path></g><path d="M 841.90 388.90 L 876.00 604.70 L 845.50 594.20 L 825.70 393.20 Z" fill="#445ec8" fill-rule="evenodd" group-id="1,2,3,7,29" id="路径-364" node-id="65" stroke="none" target-height="215.80002" target-width="50.299988" target-x="825.7" target-y="388.9"></path></g><g node-id="676"><g node-id="698"><path d="M 725.90 221.20 L 748.30 212.80 L 816.40 243.30 L 866.80 608.00 L 790.10 597.70 Z" fill="#76a6ff" fill-rule="evenodd" group-id="1,2,3,8,30" node-id="463" stroke="none" target-height="395.2" target-width="140.89996" target-x="725.9" target-y="212.8"></path></g><path d="M 785.80 264.40 L 824.20 238.20 L 748.70 203.20 L 720.60 216.30 L 751.90 259.50 Z" fill="#90e2fa" fill-rule="evenodd" group-id="1,2,3,8,31" node-id="468" stroke="none" target-height="61.199997" target-width="103.60004" target-x="720.6" target-y="203.2"></path></g><g node-id="677"><g node-id="700"><g node-id="725"><path d="M 713.40 442.10 L 732.90 430.20 L 758.90 430.20 L 789.70 614.50 L 725.50 614.50 Z" fill="#559df5" fill-rule="evenodd" group-id="1,2,3,9,32,57" node-id="475" stroke="none" target-height="184.29999" target-width="76.29999" target-x="713.4" target-y="430.2"></path></g><path d="M 730.90 426.70 L 742.80 616.30 L 769.50 615.20 L 742.80 417.10 Z" fill="#8ee4f9" fill-rule="evenodd" group-id="1,2,3,9,32,58" node-id="480" stroke="none" target-height="199.19998" target-width="38.599976" target-x="730.9" target-y="417.1"></path></g><g node-id="701"><path d="M 725.50 221.20 L 797.10 256.70 L 845.30 614.50 L 755.90 614.50 Z" fill="#c1fdf0" fill-rule="evenodd" group-id="1,2,3,9,33" node-id="485" stroke="none" target-height="393.3" target-width="119.79999" target-x="725.5" target-y="221.2"></path></g><path d="M 784.70 288.50 L 791.60 295.60 L 829.10 614.20 L 818.00 614.20 L 784.70 288.50 Z M 769.50 278.00 L 776.40 285.10 L 810.50 603.70 L 800.10 603.70 L 769.50 278.00 Z M 754.30 267.60 L 761.30 274.60 L 791.50 593.30 L 783.90 593.30 L 754.30 267.60 Z M 738.40 261.10 L 745.30 268.10 L 775.50 586.80 L 768.00 586.80 L 738.40 261.10 Z" fill="url(#linearGradient-17)" fill-rule="evenodd" group-id="1,2,3,9,34" node-id="490" stroke="none" target-height="353.1" target-width="90.69995" target-x="738.4" target-y="261.1"></path></g><g node-id="678"><g node-id="703"><path d="M 343.60 104.90 L 335.60 104.80 L 328.30 105.10 L 321.80 105.80 L 315.80 106.90 L 310.30 108.30 L 305.40 110.10 L 300.90 112.10 L 156.70 615.00 L 292.90 615.10 L 343.60 104.90 Z" fill="#b0f6fe" fill-rule="evenodd" group-id="1,2,3,10,35" node-id="496" stroke="none" target-height="510.3" target-width="186.90001" target-x="156.7" target-y="104.8"></path></g><g node-id="704"><g node-id="727"><g node-id="735"><path d="M 314.80 377.30 L 314.80 395.30 L 237.90 395.30 L 242.30 377.30 L 314.80 377.30 Z M 317.60 350.70 L 316.20 368.60 L 244.90 368.60 L 249.00 350.70 L 317.60 350.70 Z M 322.20 324.10 L 320.50 342.00 L 251.40 342.00 L 255.80 324.10 L 322.20 324.10 Z M 324.60 297.40 L 320.50 315.30 L 258.30 315.30 L 262.70 297.40 L 324.60 297.40 Z M 328.10 270.80 L 328.10 288.70 L 264.70 288.70 L 269.40 270.80 L 328.10 270.80 Z M 330.20 244.20 L 328.10 262.10 L 272.30 262.10 L 276.80 244.20 L 330.20 244.20 Z M 337.80 217.60 L 332.40 236.50 L 279.00 235.50 L 283.60 217.60 L 337.80 217.60 Z M 338.40 191.00 L 331.90 208.90 L 286.50 208.90 L 290.30 191.00 L 338.40 191.00 Z M 339.50 164.30 L 339.50 182.20 L 292.90 182.20 L 297.30 164.30 L 339.50 164.30 Z M 347.20 137.70 L 347.20 155.60 L 299.60 155.60 L 305.00 137.70 L 347.20 137.70 Z" fill="#7ed4f5" fill-rule="evenodd" group-id="1,2,3,10,36,59,67" node-id="503" stroke="none" target-height="257.59998" target-width="109.30002" target-x="237.9" target-y="137.7"></path></g><path d="M 324.60 136.20 L 276.40 405.50 L 323.60 405.50 L 362.90 137.70 Z" fill="#32aaff" fill-rule="evenodd" group-id="1,2,3,10,36,59,68" id="路径-4" node-id="90" stroke="none" target-height="269.3" target-width="86.5" target-x="276.4" target-y="136.2"></path></g></g></g><g node-id="679"><g node-id="705"><path d="M 304.40 429.50 L 233.40 457.30 L 201.10 592.50 L 286.80 592.50 Z" fill="#8ee4f9" fill-rule="evenodd" group-id="1,2,3,11,37" node-id="515" stroke="none" target-height="163" target-width="103.29999" target-x="201.1" target-y="429.5"></path></g><g node-id="706"><path d="M 238.00 485.50 L 212.80 595.60 L 228.30 595.60 L 252.70 482.40 Z" fill="#559df5" fill-rule="evenodd" group-id="1,2,3,11,38" node-id="520" stroke="none" target-height="113.19998" target-width="39.899994" target-x="212.8" target-y="482.4"></path></g><g node-id="707"><path d="M 283.70 429.40 L 285.20 429.60 L 259.60 604.30 L 258.10 604.10 Z" fill="#1540ef" fill-rule="nonzero" group-id="1,2,3,11,39" id="路径-379" node-id="96" stroke="none" target-height="174.9" target-width="27.100006" target-x="258.1" target-y="429.4"></path></g><g node-id="708"><path d="M 289.70 429.40 L 291.20 429.60 L 265.60 604.30 L 264.10 604.10 Z" fill="#1540ef" fill-rule="nonzero" group-id="1,2,3,11,40" id="路径-379备份" node-id="97" stroke="none" target-height="174.9" target-width="27.100006" target-x="264.1" target-y="429.4"></path></g><g node-id="709"><path d="M 295.80 429.40 L 297.30 429.60 L 271.70 604.30 L 270.20 604.10 Z" fill="#1540ef" fill-rule="nonzero" group-id="1,2,3,11,41" id="路径-379备份-2" node-id="98" stroke="none" target-height="174.9" target-width="27.099976" target-x="270.2" target-y="429.4"></path></g><path d="M 301.90 429.40 L 303.40 429.60 L 277.80 604.30 L 276.30 604.10 Z" fill="#1540ef" fill-rule="nonzero" group-id="1,2,3,11,42" id="路径-379备份-3" node-id="99" stroke="none" target-height="174.9" target-width="27.100006" target-x="276.3" target-y="429.4"></path></g><path d="M 1001.00 651.60 L 1000.80 654.10 L 1000.00 656.60 L 998.80 659.20 L 997.00 661.90 L 994.60 664.70 L 991.30 667.60 L 982.90 673.30 L 977.40 676.30 L 962.90 682.80 L 943.00 689.60 L 916.90 696.80 L 898.70 700.90 L 877.90 705.10 L 854.40 709.20 L 815.60 714.90 L 794.30 717.50 L 762.00 721.00 L 727.50 724.10 L 692.30 726.80 L 655.40 729.00 L 618.00 730.70 L 579.30 732.00 L 540.30 732.70 L 500.50 733.00 L 460.70 732.70 L 421.70 732.00 L 383.00 730.70 L 345.60 729.00 L 308.70 726.80 L 273.50 724.10 L 239.00 721.00 L 206.70 717.50 L 185.40 714.90 L 146.60 709.20 L 123.10 705.10 L 102.30 700.90 L 84.10 696.80 L 58.00 689.60 L 38.10 682.80 L 23.60 676.30 L 18.10 673.30 L 9.70 667.60 L 6.40 664.70 L 4.00 661.90 L 2.20 659.20 L 1.00 656.60 L 0.20 654.10 L 0.00 651.60 L 0.20 649.10 L 1.00 646.60 L 2.20 644.00 L 4.00 641.40 L 6.40 638.60 L 9.70 635.70 L 18.10 629.90 L 23.60 626.90 L 38.10 620.50 L 58.00 613.60 L 84.10 606.50 L 102.30 602.30 L 123.10 598.20 L 146.60 594.10 L 185.40 588.40 L 206.70 585.70 L 239.00 582.20 L 273.50 579.10 L 308.70 576.50 L 345.60 574.20 L 383.00 572.50 L 421.70 571.30 L 460.70 570.50 L 500.50 570.20 L 540.30 570.50 L 579.30 571.30 L 618.00 572.50 L 655.40 574.20 L 692.30 576.50 L 727.50 579.10 L 762.00 582.20 L 794.30 585.70 L 815.60 588.40 L 854.40 594.10 L 877.90 598.20 L 898.70 602.30 L 916.90 606.50 L 943.00 613.60 L 962.90 620.50 L 977.40 626.90 L 982.90 629.90 L 991.30 635.70 L 994.60 638.60 L 997.00 641.40 L 998.80 644.00 L 1000.00 646.60 L 1000.80 649.10 L 1001.00 651.60 Z" fill="#90b7ff" fill-rule="evenodd" group-id="1,2,3" id="椭圆形" node-id="100" stroke="none" target-height="162.79999" target-width="1001" target-x="0" target-y="570.2"></path><path d="M 902.80 284.60 L 902.20 288.20 L 901.40 289.80 L 899.10 292.50 L 896.00 294.30 L 892.40 294.90 L 888.70 294.30 L 885.60 292.50 L 883.30 289.80 L 882.60 288.20 L 881.90 284.60 L 882.60 281.00 L 883.30 279.40 L 885.60 276.70 L 888.70 274.90 L 892.40 274.30 L 896.00 274.90 L 899.10 276.70 L 901.40 279.40 L 902.20 281.00 L 902.80 284.60 Z" fill="#70f7fb" fill-rule="evenodd" group-id="1,2,3" id="椭圆形" node-id="101" stroke="none" target-height="20.600006" target-width="20.899963" target-x="881.9" target-y="274.3"></path><path d="M 898.90 406.20 L 898.60 407.70 L 897.80 408.90 L 896.50 409.80 L 895.00 410.10 L 893.40 409.80 L 892.20 408.90 L 891.40 407.70 L 891.10 406.20 L 891.40 404.70 L 892.20 403.50 L 893.40 402.60 L 895.00 402.30 L 896.50 402.60 L 897.80 403.50 L 898.60 404.70 L 898.90 406.20 Z" fill="#00efdb" fill-rule="evenodd" group-id="1,2,3" id="椭圆形" node-id="102" stroke="none" target-height="7.8000183" target-width="7.800049" target-x="891.1" target-y="402.3"></path><path d="M 889.80 388.10 L 889.40 389.60 L 888.60 390.80 L 887.40 391.70 L 885.80 392.00 L 884.30 391.70 L 883.10 390.80 L 882.20 389.60 L 881.90 388.10 L 882.20 386.60 L 883.10 385.30 L 884.30 384.50 L 885.80 384.20 L 887.40 384.50 L 888.60 385.30 L 889.40 386.60 L 889.80 388.10 Z" fill="#00efdb" fill-rule="evenodd" group-id="1,2,3" id="椭圆形备份-96" node-id="103" stroke="none" target-height="7.799988" target-width="7.8999634" target-x="881.9" target-y="384.2"></path><path d="M 875.40 305.90 L 875.20 307.20 L 874.00 309.10 L 872.10 310.30 L 870.80 310.50 L 868.50 309.90 L 866.90 308.20 L 866.40 307.20 L 866.20 305.90 L 866.90 303.70 L 868.50 302.00 L 870.80 301.40 L 872.10 301.60 L 874.00 302.70 L 875.20 304.70 L 875.40 305.90 Z" fill="#70f7fb" fill-rule="evenodd" group-id="1,2,3" id="椭圆形备份-6" node-id="104" stroke="none" target-height="9.100006" target-width="9.200012" target-x="866.2" target-y="301.4"></path><path d="M 793.80 145.80 L 793.50 148.50 L 792.80 151.00 L 791.70 153.30 L 790.20 155.40 L 788.40 157.20 L 786.30 158.70 L 784.00 159.80 L 781.50 160.40 L 778.80 160.70 L 776.00 160.40 L 773.50 159.80 L 771.20 158.70 L 769.10 157.20 L 767.30 155.40 L 765.80 153.30 L 764.70 151.00 L 764.00 148.50 L 763.70 145.80 L 764.00 143.10 L 764.70 140.60 L 765.80 138.30 L 767.30 136.20 L 769.10 134.40 L 771.20 133.00 L 773.50 131.90 L 776.00 131.20 L 778.80 130.90 L 781.50 131.20 L 784.00 131.90 L 786.30 133.00 L 788.40 134.40 L 790.20 136.20 L 791.70 138.30 L 792.80 140.60 L 793.50 143.10 L 793.80 145.80 Z" fill="#b0f6fe" fill-rule="evenodd" group-id="1,2,3" id="椭圆形" node-id="105" stroke="none" target-height="29.800003" target-width="30.099976" target-x="763.7" target-y="130.9"></path><path d="M 765.50 178.90 L 765.30 180.30 L 764.00 182.60 L 761.70 183.90 L 760.30 184.10 L 758.90 183.90 L 756.60 182.60 L 755.30 180.30 L 755.10 178.90 L 755.30 177.50 L 756.60 175.30 L 758.90 174.00 L 760.30 173.80 L 761.70 174.00 L 764.00 175.30 L 765.30 177.50 L 765.50 178.90 Z" fill="#b0f6fe" fill-rule="evenodd" group-id="1,2,3" id="椭圆形备份-5" node-id="106" stroke="none" target-height="10.300003" target-width="10.400024" target-x="755.1" target-y="173.8"></path><g node-id="680"><path d="M 245.50 409.40 L 244.80 417.20 L 242.50 424.30 L 240.30 428.70 L 237.50 432.70 L 234.30 436.40 L 230.60 439.60 L 226.50 442.40 L 222.00 444.60 L 214.80 446.80 L 207.00 447.60 L 199.20 446.80 L 192.00 444.60 L 187.50 442.40 L 183.40 439.60 L 179.70 436.40 L 176.50 432.70 L 173.70 428.70 L 171.50 424.30 L 169.20 417.20 L 168.70 413.40 L 168.50 409.40 L 168.70 405.50 L 170.20 398.10 L 171.50 394.60 L 173.70 390.20 L 176.50 386.10 L 179.70 382.40 L 183.40 379.20 L 187.50 376.50 L 192.00 374.30 L 199.20 372.10 L 207.00 371.30 L 214.80 372.10 L 222.00 374.30 L 226.50 376.50 L 230.60 379.20 L 234.30 382.40 L 237.50 386.10 L 240.30 390.20 L 242.50 394.60 L 244.80 401.70 L 245.50 409.40 Z" fill="#ffa82a" fill-rule="evenodd" group-id="1,2,3,12" id="椭圆形" node-id="108" stroke="none" target-height="76.30002" target-width="77" target-x="168.5" target-y="371.3"></path><path d="M 198.70 395.20 L 224.40 412.20 L 198.70 425.10 Z" fill="#ffffff" fill-rule="evenodd" group-id="1,2,3,12" id="三角形" node-id="109" stroke="none" target-height="29.899994" target-width="25.699997" target-x="198.7" target-y="395.2"></path></g><g node-id="681"><path d="M 197.20 227.70 L 197.00 231.80 L 196.30 235.80 L 195.30 239.60 L 193.90 243.30 L 190.10 250.10 L 185.00 256.00 L 178.80 260.90 L 171.70 264.60 L 163.90 267.00 L 155.40 267.80 L 146.90 267.00 L 139.10 264.60 L 132.00 260.90 L 125.80 256.00 L 120.70 250.10 L 116.90 243.30 L 115.50 239.60 L 114.40 235.80 L 113.80 231.80 L 113.60 227.70 L 113.80 223.50 L 114.40 219.50 L 115.50 215.70 L 116.90 212.10 L 120.70 205.30 L 125.80 199.30 L 132.00 194.40 L 139.10 190.70 L 146.90 188.40 L 155.40 187.60 L 163.90 188.40 L 171.70 190.70 L 178.80 194.40 L 185.00 199.30 L 190.10 205.30 L 193.90 212.10 L 195.30 215.70 L 196.30 219.50 L 197.00 223.50 L 197.20 227.70 Z" fill="#82c035" fill-rule="evenodd" group-id="1,2,3,13" id="椭圆形" node-id="111" stroke="none" target-height="80.19998" target-width="83.6" target-x="113.6" target-y="187.6"></path><path d="M 151.60 211.30 L 151.60 242.50 L 142.50 242.50 L 142.50 211.30 L 151.60 211.30 Z M 169.80 211.30 L 169.80 242.50 L 160.70 242.50 L 160.70 211.30 L 169.80 211.30 Z" fill="#ffffff" fill-rule="evenodd" group-id="1,2,3,13" id="形状结合" node-id="112" stroke="none" target-height="31.199997" target-width="27.300003" target-x="142.5" target-y="211.3"></path></g><path d="M 214.20 95.10 L 213.90 98.50 L 213.00 101.60 L 211.60 104.50 L 209.70 107.20 L 207.50 109.40 L 204.80 111.30 L 201.90 112.70 L 198.70 113.50 L 195.20 113.80 L 191.80 113.50 L 188.60 112.70 L 185.70 111.30 L 183.00 109.40 L 180.80 107.20 L 178.90 104.50 L 177.50 101.60 L 176.60 98.50 L 176.30 95.10 L 176.60 91.70 L 177.50 88.50 L 178.90 85.60 L 180.80 83.00 L 183.00 80.80 L 185.70 78.90 L 188.60 77.50 L 191.80 76.60 L 195.20 76.30 L 198.70 76.60 L 201.90 77.50 L 204.80 78.90 L 207.50 80.80 L 209.70 83.00 L 211.60 85.60 L 213.00 88.50 L 213.90 91.70 L 214.20 95.10 Z" fill="#a7ffff" fill-rule="evenodd" group-id="1,2,3" id="椭圆形" node-id="113" stroke="none" target-height="37.5" target-width="37.899994" target-x="176.3" target-y="76.3"></path><path d="M 218.10 121.00 L 217.90 122.20 L 216.80 124.20 L 214.80 125.30 L 213.50 125.50 L 211.20 124.90 L 209.60 123.20 L 209.10 122.20 L 209.00 121.00 L 209.60 118.70 L 211.20 117.00 L 213.50 116.40 L 214.80 116.60 L 216.80 117.80 L 217.90 119.70 L 218.10 121.00 Z" fill="#a7ffff" fill-rule="evenodd" group-id="1,2,3" id="椭圆形" node-id="114" stroke="none" target-height="9.099998" target-width="9.100006" target-x="209" target-y="116.4"></path><path d="M 771.00 7.80 L 784.20 54.10 L 778.10 55.30 L 773.30 56.60 L 769.40 58.20 L 766.50 59.90 L 764.20 61.80 L 762.50 63.80 L 761.30 65.90 L 760.60 68.30 L 760.40 70.80 L 760.70 73.70 L 761.50 76.70 L 762.70 78.90 L 764.20 80.40 L 766.00 81.60 L 768.00 82.40 L 770.20 82.70 L 773.70 82.70 L 777.30 82.10 L 784.00 79.90 L 788.60 77.80 L 791.90 75.40 L 793.30 73.80 L 795.30 69.80 L 795.90 67.50 L 796.20 65.00 L 796.00 62.20 L 795.40 59.10 L 781.40 15.10 L 782.00 14.10 L 782.90 13.50 L 784.30 13.30 L 786.50 13.70 L 793.60 16.70 L 797.00 17.60 L 800.10 18.00 L 802.90 17.80 L 806.20 19.30 L 808.40 20.80 L 809.90 22.40 L 810.70 24.10 L 810.90 26.00 L 811.30 22.90 L 811.20 20.30 L 810.50 17.90 L 809.30 15.80 L 807.60 14.00 L 805.20 12.30 L 802.10 10.80 L 798.00 9.40 L 787.00 6.70 L 784.80 5.70 L 782.70 4.20 L 780.30 1.70 L 777.40 0.40 L 775.20 0.00 L 773.70 0.20 L 772.50 1.00 L 771.70 2.30 L 771.10 4.40 L 771.00 7.80 Z" fill="#3e2be7" fill-rule="evenodd" group-id="1,2,3" id="路径-260" node-id="115" stroke="none" target-height="82.7" target-width="50.899963" target-x="760.4" target-y="0"></path><path d="M 79.10 397.20 L 88.20 428.30 L 83.10 429.30 L 79.20 430.60 L 76.40 432.00 L 74.30 433.50 L 73.00 435.20 L 72.10 437.10 L 71.80 439.10 L 72.00 441.50 L 72.50 443.50 L 73.30 445.10 L 75.50 447.10 L 78.30 448.10 L 80.60 448.40 L 85.30 447.70 L 90.50 445.90 L 92.30 444.70 L 94.00 442.80 L 95.30 440.50 L 96.20 437.70 L 96.40 433.80 L 93.40 423.40 L 86.30 402.10 L 95.60 402.30 L 98.60 402.90 L 103.90 405.20 L 105.60 406.50 L 106.50 407.90 L 106.80 409.40 L 107.00 407.10 L 106.80 405.10 L 106.10 403.30 L 104.90 401.80 L 103.10 400.40 L 97.80 398.30 L 90.20 396.50 L 87.20 394.80 L 85.50 393.10 L 83.40 393.70 L 81.60 394.60 L 80.20 395.70 L 79.10 397.20 Z" fill="#3e2be7" fill-rule="evenodd" group-id="1,2,3" id="路径-260备份" node-id="116" stroke="none" target-height="55.299988" target-width="35.199997" target-x="71.8" target-y="393.1"></path><path d="M 237.10 39.10 L 259.20 31.90 L 272.50 27.00 L 279.70 23.90 L 283.00 22.00 L 300.60 75.70 L 301.50 79.40 L 301.70 82.50 L 301.50 85.20 L 300.70 87.50 L 299.50 89.60 L 297.80 91.40 L 295.50 93.10 L 292.50 94.50 L 288.70 95.60 L 285.30 96.10 L 282.50 95.90 L 280.30 95.30 L 278.20 94.10 L 276.60 92.60 L 275.40 90.90 L 274.60 88.80 L 274.20 86.70 L 274.20 84.50 L 274.70 82.30 L 275.50 80.30 L 276.70 78.40 L 278.30 76.90 L 280.40 75.60 L 283.00 74.70 L 285.40 74.60 L 287.40 74.80 L 289.10 75.50 L 290.40 76.50 L 291.50 78.00 L 277.80 39.10 L 267.60 43.90 L 260.00 47.10 L 254.50 49.00 L 250.60 49.90 L 247.90 50.20 L 258.40 80.30 L 260.30 86.90 L 261.00 91.70 L 260.20 95.50 L 258.30 99.80 L 255.80 102.30 L 254.10 103.30 L 249.70 104.60 L 246.60 104.80 L 243.50 104.50 L 241.10 103.70 L 239.40 102.70 L 238.00 101.20 L 237.00 99.60 L 236.50 97.80 L 236.70 94.20 L 238.20 90.90 L 239.40 89.70 L 240.90 88.80 L 244.80 87.70 L 248.50 88.10 L 253.90 90.70 L 254.30 89.60 L 254.20 87.20 L 253.20 82.40 L 250.60 73.90 L 245.60 60.10 L 237.10 39.10 Z" fill="#ffa82a" fill-rule="evenodd" group-id="1,2,3" id="路径-387" node-id="117" stroke="none" target-height="82.8" target-width="65.20001" target-x="236.5" target-y="22"></path><g node-id="682"><path d="M 901.50 160.40 L 901.30 165.00 L 900.60 169.30 L 899.50 173.50 L 898.00 177.50 L 896.10 181.40 L 893.90 185.00 L 891.40 188.40 L 888.50 191.50 L 885.30 194.40 L 881.90 196.90 L 878.30 199.10 L 874.40 200.90 L 870.30 202.40 L 866.10 203.50 L 861.70 204.10 L 857.10 204.40 L 852.50 204.10 L 848.10 203.50 L 843.90 202.40 L 839.80 200.90 L 835.90 199.10 L 832.20 196.90 L 828.80 194.40 L 825.70 191.50 L 822.80 188.40 L 820.30 185.00 L 818.00 181.40 L 816.20 177.50 L 814.70 173.50 L 813.60 169.30 L 812.90 165.00 L 812.70 160.40 L 812.90 155.80 L 813.60 151.50 L 814.70 147.30 L 816.20 143.30 L 818.00 139.40 L 820.30 135.80 L 822.80 132.40 L 825.70 129.30 L 828.80 126.50 L 832.20 123.90 L 835.90 121.80 L 839.80 119.90 L 843.90 118.40 L 848.10 117.30 L 852.50 116.70 L 857.10 116.40 L 861.70 116.70 L 866.10 117.30 L 870.30 118.40 L 874.40 119.90 L 878.30 121.80 L 881.90 123.90 L 885.30 126.50 L 888.50 129.30 L 891.40 132.40 L 893.90 135.80 L 896.10 139.40 L 898.00 143.30 L 899.50 147.30 L 900.60 151.50 L 901.30 155.80 L 901.50 160.40 Z" fill="#ea3127" fill-rule="evenodd" group-id="1,2,3,14" id="椭圆形" node-id="119" stroke="none" target-height="87.99999" target-width="88.79999" target-x="812.7" target-y="116.4"></path><path d="M 854.30 142.50 L 854.30 151.90 L 861.50 151.40 L 867.10 151.50 L 871.30 152.00 L 874.50 152.80 L 876.70 153.70 L 878.40 155.00 L 879.80 156.60 L 880.90 158.70 L 882.10 163.20 L 882.00 168.20 L 880.70 172.80 L 879.60 174.80 L 878.30 176.50 L 876.70 177.80 L 874.60 178.80 L 871.70 179.60 L 867.60 180.10 L 862.00 180.20 L 854.60 179.70 L 845.00 178.50 L 845.00 142.50 L 845.20 141.00 L 846.40 138.90 L 847.90 138.00 L 849.60 137.80 L 851.30 138.00 L 852.80 138.90 L 854.10 141.00 L 854.30 142.50 Z M 842.30 157.10 L 842.30 175.80 L 842.00 177.30 L 841.20 178.30 L 840.20 178.90 L 838.90 179.10 L 837.70 178.90 L 836.60 178.20 L 835.90 177.30 L 835.50 175.80 L 835.50 157.10 L 835.90 155.60 L 836.60 154.60 L 837.70 153.90 L 838.90 153.70 L 840.20 154.00 L 841.20 154.60 L 842.00 155.70 L 842.30 157.10 Z" fill="#ffffff" fill-rule="evenodd" group-id="1,2,3,14" id="形状结合" node-id="120" stroke="none" target-height="42.399994" target-width="46.599976" target-x="835.5" target-y="137.8"></path></g></g><g node-id="672"><path d="M 622.90 30.20 L 629.10 31.60 L 634.70 33.40 L 639.80 35.60 L 644.50 38.20 L 648.70 41.30 L 652.60 44.80 L 656.10 48.70 L 659.30 53.10 L 662.10 58.10 L 664.60 63.60 L 666.70 69.80 L 668.40 76.70 L 669.70 84.30 L 671.70 101.30 L 675.70 143.40 L 683.20 228.10 L 695.80 377.20 L 716.00 623.70 L 715.80 629.40 L 715.20 634.60 L 714.10 639.20 L 712.50 643.40 L 710.50 647.20 L 708.20 650.70 L 705.40 653.80 L 702.10 656.60 L 698.30 659.10 L 694.00 661.30 L 689.00 663.20 L 683.30 664.80 L 676.90 666.00 L 669.50 666.70 L 661.20 667.00 L 315.40 666.80 L 309.80 666.20 L 304.90 665.10 L 300.60 663.50 L 297.00 661.60 L 293.80 659.40 L 291.00 656.70 L 288.60 653.70 L 286.70 650.20 L 285.10 646.30 L 283.90 641.70 L 283.20 636.50 L 283.00 630.60 L 283.40 623.80 L 287.60 584.10 L 346.70 66.70 L 348.80 60.40 L 351.10 54.80 L 353.60 50.00 L 356.50 45.70 L 359.60 42.10 L 362.90 39.00 L 366.60 36.40 L 370.50 34.20 L 374.70 32.50 L 379.30 31.30 L 384.40 30.50 L 389.90 30.20 L 622.90 30.20 Z" fill="#7c73ff" fill-rule="evenodd" group-id="1,2,4" id="路径-244备份" node-id="122" stroke="none" target-height="636.8" target-width="433" target-x="283" target-y="30.2"></path><path d="M 622.90 18.00 L 629.10 19.30 L 634.70 21.10 L 639.80 23.40 L 644.50 26.00 L 648.70 29.10 L 652.60 32.50 L 656.10 36.50 L 659.30 40.90 L 662.10 45.90 L 664.60 51.40 L 666.70 57.60 L 668.40 64.50 L 669.70 72.10 L 675.70 131.20 L 683.20 215.80 L 695.80 364.90 L 716.00 611.40 L 715.80 617.20 L 715.20 622.30 L 714.10 627.00 L 712.50 631.20 L 710.50 635.00 L 708.20 638.50 L 705.40 641.60 L 702.10 644.40 L 698.30 646.90 L 694.00 649.10 L 689.00 651.00 L 683.30 652.60 L 676.90 653.80 L 669.50 654.50 L 661.20 654.80 L 315.40 654.60 L 309.80 654.00 L 304.90 652.80 L 300.60 651.30 L 297.00 649.40 L 293.80 647.20 L 291.00 644.50 L 288.60 641.50 L 286.70 638.00 L 285.10 634.00 L 283.90 629.50 L 283.20 624.30 L 283.00 618.40 L 283.40 611.60 L 287.60 571.90 L 346.70 54.50 L 348.80 48.20 L 351.10 42.60 L 353.60 37.70 L 356.50 33.50 L 359.60 29.90 L 362.90 26.80 L 366.60 24.10 L 370.50 22.00 L 374.70 20.30 L 379.30 19.00 L 384.40 18.30 L 389.90 18.00 L 622.90 18.00 Z" fill="#5b5173" fill-rule="evenodd" group-id="1,2,4" id="路径-244" node-id="123" stroke="none" target-height="636.8" target-width="433" target-x="283" target-y="18"></path><path d="M 479.10 36.90 L 479.00 38.10 L 477.90 40.00 L 476.00 41.10 L 474.80 41.20 L 472.60 40.60 L 471.10 39.10 L 470.70 38.10 L 470.50 36.90 L 471.10 34.80 L 472.60 33.20 L 474.80 32.70 L 476.00 32.80 L 477.90 33.90 L 479.00 35.80 L 479.10 36.90 Z" fill="#0e0e0e" fill-rule="evenodd" group-id="1,2,4" id="椭圆形" node-id="124" stroke="none" target-height="8.5" target-width="8.600006" target-x="470.5" target-y="32.7"></path><path d="M 484.70 33.90 L 540.20 33.90 L 541.40 34.10 L 542.40 34.80 L 543.00 35.70 L 543.30 36.90 L 543.00 38.10 L 542.40 39.10 L 541.40 39.80 L 540.20 40.00 L 484.70 40.00 L 483.50 39.80 L 482.50 39.10 L 481.80 38.10 L 481.60 36.90 L 481.80 35.80 L 482.50 34.80 L 483.50 34.10 L 484.70 33.90 Z" fill="#0e0e0e" fill-rule="evenodd" group-id="1,2,4" id="矩形" node-id="125" stroke="none" target-height="6.0999985" target-width="61.69998" target-x="481.6" target-y="33.9"></path><g node-id="683"><g node-id="711"><path d="M 608.80 32.30 L 614.80 33.70 L 620.10 35.60 L 625.00 37.90 L 629.40 40.70 L 633.50 44.00 L 637.10 47.80 L 640.40 52.10 L 643.30 56.90 L 645.90 62.50 L 648.00 68.70 L 649.80 75.70 L 651.10 83.60 L 653.50 106.80 L 659.40 173.40 L 671.30 318.60 L 692.50 588.50 L 692.70 595.60 L 692.30 601.80 L 691.40 607.40 L 690.00 612.20 L 688.30 616.50 L 686.10 620.30 L 683.50 623.60 L 680.50 626.50 L 677.10 629.00 L 673.20 631.20 L 668.70 632.90 L 663.60 634.30 L 657.70 635.20 L 651.10 635.60 L 604.60 635.80 L 379.90 635.40 L 331.40 635.70 L 324.50 635.40 L 320.10 634.90 L 316.50 634.10 L 313.50 633.00 L 311.50 631.80 L 309.70 630.30 L 308.20 628.50 L 306.90 626.30 L 305.60 623.20 L 304.70 619.00 L 304.10 613.70 L 304.00 608.30 L 304.80 593.20 L 308.60 555.60 L 359.60 66.90 L 361.60 60.30 L 364.00 54.60 L 366.60 49.70 L 369.50 45.60 L 372.70 42.10 L 376.10 39.10 L 379.90 36.70 L 383.90 34.80 L 388.40 33.50 L 393.20 32.60 L 398.60 32.30 L 435.90 32.50 L 437.30 33.80 L 438.20 35.30 L 442.00 43.30 L 444.30 45.60 L 446.80 46.20 L 568.50 46.20 L 569.80 46.00 L 571.70 44.80 L 572.80 43.30 L 576.10 35.30 L 577.20 33.80 L 579.20 32.50 L 608.80 32.30 Z" fill="#f0f9fb" fill-rule="evenodd" group-id="1,2,4,15,43" node-id="572" stroke="none" target-height="603.5" target-width="388.7" target-x="304" target-y="32.3"></path></g><path d="M 321.20 422.30 L 362.20 69.80 L 363.70 63.20 L 365.60 57.60 L 367.80 52.80 L 370.30 48.70 L 373.00 45.20 L 376.00 42.30 L 379.30 39.90 L 383.00 38.00 L 386.90 36.60 L 391.30 35.70 L 433.10 35.60 L 434.70 39.90 L 436.50 43.20 L 438.40 45.60 L 440.30 47.40 L 442.40 48.70 L 444.60 49.40 L 446.90 49.70 L 567.00 49.20 L 569.90 48.20 L 572.20 46.90 L 573.90 45.30 L 575.30 43.50 L 576.30 41.50 L 578.30 35.60 L 610.00 35.70 L 615.90 37.80 L 621.20 40.30 L 625.90 43.00 L 630.00 46.10 L 633.60 49.60 L 636.80 53.40 L 639.50 57.60 L 641.80 62.10 L 643.70 67.10 L 645.10 72.60 L 646.40 82.00 L 650.20 115.10 L 658.40 195.70 L 673.90 355.70 L 685.00 330.70 L 647.60 41.50 L 624.50 28.60 L 371.80 28.60 L 353.60 63.60 L 321.20 422.30 Z" fill="#aad7e1" fill-rule="evenodd" group-id="1,2,4,15,44" node-id="577" stroke="none" target-height="393.69998" target-width="363.8" target-x="321.2" target-y="28.6"></path></g><path d="M 404.10 122.20 L 404.10 120.80 L 401.20 120.80 L 400.60 119.40 L 399.10 119.70 L 399.70 120.80 L 396.90 120.80 L 396.90 122.20 L 404.10 122.20 Z M 409.60 134.00 L 409.60 125.80 L 411.10 125.80 L 411.10 124.40 L 406.30 124.40 L 406.30 121.90 L 410.70 121.00 L 410.00 119.70 L 407.60 120.40 L 404.80 120.70 L 404.60 129.70 L 403.40 132.80 L 404.40 134.00 L 405.40 132.30 L 406.00 130.10 L 406.30 125.80 L 408.10 125.80 L 408.10 134.00 L 409.60 134.00 Z M 399.70 134.00 L 400.60 133.90 L 401.10 133.40 L 401.30 128.50 L 403.90 128.50 L 403.90 127.10 L 401.30 127.10 L 401.30 125.70 L 404.20 125.70 L 404.20 124.40 L 402.60 124.40 L 403.20 122.80 L 401.90 122.40 L 401.20 124.40 L 399.70 124.40 L 399.00 122.40 L 397.70 122.90 L 398.40 124.40 L 396.80 124.40 L 396.80 125.70 L 399.80 125.70 L 399.80 127.10 L 397.00 127.10 L 397.00 128.50 L 399.80 128.50 L 399.80 132.30 L 399.70 132.60 L 398.60 132.70 L 398.90 134.00 L 399.70 134.00 Z M 402.60 132.20 L 403.80 131.80 L 402.90 129.10 L 401.60 129.40 L 402.60 132.20 Z M 397.70 133.60 L 399.30 129.40 L 398.00 129.20 L 396.50 132.80 L 397.70 133.60 Z M 416.10 122.60 L 417.50 122.00 L 415.70 119.50 L 414.30 120.10 L 416.10 122.60 Z M 424.30 133.90 L 425.30 133.70 L 425.80 133.10 L 426.00 132.10 L 426.00 120.20 L 418.70 120.20 L 418.70 121.60 L 424.60 121.60 L 424.60 131.70 L 424.40 132.30 L 423.00 132.50 L 423.40 133.90 L 424.30 133.90 Z M 414.50 134.00 L 414.50 122.20 L 413.00 122.20 L 413.00 134.00 L 414.50 134.00 Z M 422.30 133.20 L 422.30 131.20 L 423.60 131.00 L 423.60 129.80 L 422.30 130.00 L 422.30 124.40 L 423.40 124.40 L 423.40 123.20 L 415.60 123.20 L 415.60 124.40 L 416.50 124.40 L 416.50 130.50 L 415.30 130.50 L 415.40 131.90 L 420.90 131.40 L 420.90 133.20 L 422.30 133.20 Z M 420.90 125.60 L 417.80 125.60 L 417.80 124.40 L 420.90 124.40 L 420.90 125.60 Z M 420.90 127.90 L 417.80 127.90 L 417.80 126.70 L 420.90 126.70 L 420.90 127.90 Z M 417.80 130.40 L 417.80 129.10 L 420.90 129.10 L 420.90 130.10 L 417.80 130.40 Z M 444.50 134.00 L 447.20 130.80 L 448.60 132.10 L 449.50 131.00 L 447.80 129.50 L 448.70 126.70 L 449.10 122.50 L 446.70 122.50 L 447.20 119.70 L 445.70 119.50 L 445.30 122.50 L 443.70 122.50 L 443.70 123.90 L 445.00 123.90 L 444.00 128.20 L 446.10 129.90 L 443.50 132.90 L 444.50 134.00 Z M 457.00 124.30 L 457.00 120.10 L 450.00 120.10 L 450.00 124.30 L 457.00 124.30 Z M 455.60 123.10 L 451.40 123.10 L 451.40 121.40 L 455.60 121.40 L 455.60 123.10 Z M 446.70 128.60 L 445.50 127.70 L 446.50 123.90 L 447.70 123.90 L 446.70 128.60 Z M 449.50 134.10 L 452.20 132.50 L 453.50 130.50 L 455.70 132.90 L 457.30 134.00 L 458.30 132.80 L 456.70 131.90 L 454.50 129.60 L 457.90 129.60 L 457.90 128.20 L 454.00 128.20 L 454.20 126.90 L 457.30 126.90 L 457.30 125.50 L 449.70 125.50 L 449.70 126.90 L 452.70 126.90 L 452.60 128.20 L 449.10 128.20 L 449.10 129.60 L 452.20 129.60 L 451.20 131.30 L 448.70 132.80 L 449.50 134.10 Z M 465.80 133.90 L 466.80 133.70 L 467.30 133.20 L 467.50 127.00 L 473.10 127.00 L 473.10 125.60 L 467.50 125.60 L 467.50 122.70 L 466.00 122.70 L 466.00 125.60 L 461.90 125.60 L 462.60 122.00 L 468.20 121.60 L 472.10 120.90 L 471.40 119.60 L 466.20 120.50 L 461.30 120.60 L 460.20 127.00 L 466.00 127.00 L 465.80 132.40 L 463.40 132.50 L 463.70 133.90 L 465.80 133.90 Z M 471.90 133.40 L 473.30 132.70 L 470.70 127.90 L 469.40 128.50 L 471.90 133.40 Z M 460.80 133.30 L 463.50 128.60 L 462.20 128.00 L 459.50 132.40 L 460.80 133.30 Z M 494.40 134.00 L 494.40 127.80 L 495.90 129.20 L 496.70 127.90 L 494.40 126.20 L 496.20 122.90 L 496.20 121.70 L 494.70 121.70 L 493.90 119.50 L 492.50 119.90 L 493.30 121.70 L 491.10 121.70 L 491.10 123.10 L 494.80 123.10 L 492.60 126.20 L 490.70 128.00 L 491.20 129.50 L 492.90 127.90 L 492.90 134.00 L 494.40 134.00 Z M 498.60 128.90 L 498.60 121.60 L 502.60 121.60 L 502.60 128.90 L 504.10 128.90 L 504.10 120.10 L 497.10 120.10 L 497.10 128.90 L 498.60 128.90 Z M 496.30 134.10 L 499.10 132.30 L 500.60 129.60 L 500.60 132.20 L 500.80 133.10 L 501.30 133.60 L 504.30 133.60 L 505.00 132.80 L 505.30 131.00 L 503.90 130.50 L 503.70 132.10 L 503.30 132.40 L 502.20 132.30 L 502.10 128.90 L 500.90 128.90 L 501.30 122.50 L 499.80 122.50 L 499.50 128.20 L 498.90 130.10 L 498.20 131.10 L 495.50 132.80 L 496.30 134.10 Z M 513.10 125.60 L 513.10 124.20 L 511.00 124.20 L 511.00 122.70 L 512.90 122.70 L 512.90 121.30 L 511.00 121.30 L 511.00 119.60 L 509.50 119.60 L 509.50 124.20 L 508.60 124.20 L 508.60 120.90 L 507.20 120.90 L 507.20 124.20 L 506.40 124.20 L 506.40 125.60 L 513.10 125.60 Z M 515.20 130.50 L 515.20 124.30 L 518.90 124.30 L 518.90 130.50 L 520.30 130.50 L 520.30 122.90 L 517.60 122.90 L 517.70 121.50 L 520.80 121.50 L 520.80 120.10 L 513.30 120.10 L 513.30 121.50 L 516.20 121.50 L 516.00 122.90 L 513.70 122.90 L 513.70 130.50 L 515.20 130.50 Z M 513.40 134.00 L 515.40 133.10 L 516.60 131.90 L 517.40 130.20 L 517.70 125.00 L 516.30 125.00 L 516.30 127.80 L 515.40 130.90 L 514.50 131.80 L 512.60 132.70 L 513.40 134.00 Z M 507.40 133.90 L 509.20 133.10 L 510.80 132.00 L 511.90 130.70 L 512.80 129.00 L 513.40 127.00 L 512.10 126.70 L 510.90 129.60 L 510.90 126.10 L 509.50 126.10 L 509.50 130.20 L 510.50 130.20 L 508.10 132.00 L 506.50 132.60 L 507.40 133.90 Z M 507.50 130.70 L 508.90 127.30 L 507.60 126.80 L 506.40 129.70 L 507.50 130.70 Z M 519.90 134.00 L 521.00 133.00 L 518.30 130.40 L 517.30 131.40 L 519.90 134.00 Z M 538.30 130.20 L 542.70 129.10 L 542.70 127.80 L 540.00 128.60 L 543.20 123.20 L 541.80 122.70 L 540.90 124.50 L 539.40 124.70 L 541.50 120.10 L 540.10 119.60 L 538.30 124.30 L 537.70 124.80 L 538.10 126.20 L 540.30 125.80 L 538.60 128.50 L 537.90 128.90 L 538.30 130.20 Z M 550.50 125.90 L 550.50 124.60 L 551.50 125.30 L 552.30 124.10 L 550.60 122.70 L 548.30 119.70 L 547.00 119.70 L 544.50 122.80 L 542.80 124.10 L 543.60 125.30 L 544.70 124.60 L 544.70 125.90 L 550.50 125.90 Z M 550.50 124.50 L 544.70 124.50 L 546.30 123.00 L 547.60 121.00 L 548.80 122.90 L 550.50 124.50 Z M 550.70 134.10 L 552.00 133.50 L 550.10 129.60 L 548.80 130.00 L 549.60 131.70 L 545.50 132.30 L 547.30 129.00 L 552.00 129.00 L 552.00 127.60 L 543.30 127.60 L 543.30 129.00 L 545.80 129.00 L 543.70 132.60 L 544.00 133.70 L 550.20 132.90 L 550.70 134.10 Z M 538.00 133.40 L 543.00 132.00 L 543.00 130.60 L 537.80 132.00 L 538.00 133.40 Z M 567.70 121.80 L 567.70 120.40 L 553.70 120.40 L 553.70 121.80 L 567.70 121.80 Z M 564.60 130.50 L 564.60 123.10 L 556.80 123.10 L 556.80 130.50 L 564.60 130.50 Z M 555.60 134.00 L 555.60 133.20 L 565.80 133.20 L 565.80 134.00 L 567.20 134.00 L 567.20 124.30 L 565.80 124.30 L 565.80 131.80 L 555.60 131.80 L 555.60 124.30 L 554.20 124.30 L 554.20 134.00 L 555.60 134.00 Z M 563.10 126.20 L 561.30 126.20 L 561.30 124.40 L 563.10 124.40 L 563.10 126.20 Z M 560.00 126.20 L 558.20 126.20 L 558.20 124.40 L 560.00 124.40 L 560.00 126.20 Z M 560.00 129.20 L 558.20 129.20 L 558.20 127.40 L 560.00 127.40 L 560.00 129.20 Z M 563.10 129.20 L 561.30 129.20 L 561.30 127.40 L 563.10 127.40 L 563.10 129.20 Z M 588.00 134.00 L 588.00 123.80 L 589.50 120.20 L 588.20 119.50 L 587.30 122.00 L 584.80 126.20 L 585.20 127.70 L 586.50 126.10 L 586.50 134.00 L 588.00 134.00 Z M 594.50 134.00 L 594.50 130.90 L 596.80 130.90 L 596.80 129.50 L 594.50 129.50 L 594.50 123.50 L 595.40 126.30 L 596.70 128.90 L 598.30 131.20 L 599.30 130.00 L 597.80 128.00 L 595.70 123.50 L 598.70 123.50 L 598.70 122.10 L 594.50 122.10 L 594.50 119.60 L 593.10 119.60 L 593.10 122.10 L 589.10 122.10 L 589.10 123.50 L 591.90 123.50 L 591.00 126.10 L 589.80 128.30 L 588.30 130.20 L 589.10 131.40 L 590.70 129.30 L 592.10 126.60 L 593.10 123.50 L 593.10 129.50 L 590.90 129.50 L 590.90 130.90 L 593.10 130.90 L 593.10 134.00 L 594.50 134.00 Z M 613.30 125.80 L 614.60 124.90 L 611.60 122.30 L 614.80 122.30 L 614.80 120.90 L 608.60 120.90 L 608.10 119.50 L 606.30 119.80 L 606.90 120.90 L 600.60 120.90 L 600.60 122.30 L 604.40 122.30 L 602.50 123.70 L 601.80 123.90 L 602.10 125.10 L 612.20 124.60 L 613.30 125.80 Z M 604.20 123.90 L 606.30 122.30 L 610.70 122.30 L 610.10 122.70 L 611.00 123.50 L 604.20 123.90 Z M 604.30 134.00 L 604.30 131.50 L 611.10 131.50 L 610.90 132.50 L 608.90 132.50 L 609.30 134.00 L 611.90 133.80 L 612.40 133.30 L 612.60 125.80 L 602.90 125.80 L 602.90 134.00 L 604.30 134.00 Z M 611.10 128.10 L 604.30 128.10 L 604.30 127.00 L 611.10 127.00 L 611.10 128.10 Z M 611.10 130.20 L 604.30 130.20 L 604.30 129.30 L 611.10 129.30 L 611.10 130.20 Z" fill="#b9b6b6" fill-rule="nonzero" group-id="1,2,4" id="新闻娱乐视频绘画体育" node-id="131" stroke="none" target-height="14.700005" target-width="218.29999" target-x="396.5" target-y="119.4"></path><path d="M 498.30 63.20 L 616.30 63.20 L 619.00 63.50 L 621.10 64.20 L 622.80 65.20 L 624.10 66.60 L 625.10 68.40 L 625.70 70.70 L 625.90 73.60 L 625.90 87.10 L 625.40 88.50 L 624.40 89.80 L 622.90 90.90 L 620.60 91.70 L 617.40 92.30 L 613.10 92.60 L 392.50 92.60 L 390.10 92.00 L 388.30 91.20 L 387.00 90.10 L 386.10 88.80 L 385.50 87.30 L 385.40 85.30 L 385.60 80.50 L 386.20 76.20 L 388.60 67.20 L 389.40 65.90 L 390.50 64.80 L 392.00 64.00 L 394.10 63.40 L 396.90 63.20 L 498.30 63.20 Z" fill="#f8ca9b" fill-rule="evenodd" group-id="1,2,4" id="路径-252" node-id="132" stroke="none" target-height="29.399998" target-width="240.50003" target-x="385.4" target-y="63.2"></path><path d="M 497.80 143.90 L 628.10 143.90 L 630.40 144.20 L 632.20 145.00 L 633.60 146.20 L 634.70 148.10 L 635.40 150.80 L 638.10 189.50 L 643.20 248.90 L 643.00 251.20 L 642.40 252.90 L 641.30 254.30 L 639.70 255.30 L 637.50 256.00 L 634.50 256.30 L 378.90 256.30 L 376.50 255.80 L 374.70 254.90 L 373.40 253.90 L 372.50 252.60 L 372.00 250.90 L 371.80 248.90 L 372.20 240.70 L 380.00 149.60 L 380.40 147.90 L 381.10 146.60 L 382.20 145.50 L 383.80 144.70 L 385.90 144.10 L 388.70 143.90 L 497.80 143.90 Z" fill="#ff9424" fill-rule="evenodd" group-id="1,2,4" id="蒙版" node-id="133" stroke="none" target-height="112.399994" target-width="271.40002" target-x="371.8" target-y="143.9"></path><g node-id="684"><g node-id="713"><g node-id="728"><path d="M 498.50 141.40 L 629.20 141.40 L 631.50 141.70 L 633.30 142.50 L 634.70 143.80 L 635.80 145.70 L 636.50 148.30 L 639.20 186.90 L 644.40 246.10 L 644.20 248.30 L 643.50 250.10 L 642.50 251.40 L 640.90 252.50 L 638.70 253.20 L 635.70 253.50 L 379.20 253.50 L 376.70 252.90 L 375.00 252.10 L 373.60 251.00 L 372.70 249.70 L 372.20 248.10 L 372.00 246.10 L 372.40 237.90 L 380.30 147.20 L 380.60 145.50 L 381.40 144.10 L 382.50 143.00 L 384.00 142.20 L 386.10 141.70 L 389.00 141.40 L 498.50 141.40 Z" fill="#ffc180" fill-opacity="0.8129418" fill-rule="evenodd" group-id="1,2,4,16,45,60" node-id="588" stroke="none" target-height="112.100006" target-width="272.40002" target-x="372" target-y="141.4"></path></g></g></g><path d="M 494.70 311.30 L 642.20 311.30 L 644.40 311.60 L 646.20 312.20 L 647.70 313.30 L 648.90 314.90 L 649.80 317.00 L 650.50 319.80 L 651.20 333.50 L 653.40 363.90 L 659.20 432.30 L 659.10 434.60 L 658.50 436.40 L 657.60 437.90 L 656.40 439.10 L 654.60 440.00 L 652.40 440.60 L 649.40 440.90 L 360.10 440.90 L 357.40 440.30 L 355.40 439.30 L 353.90 438.10 L 352.90 436.50 L 352.30 434.70 L 352.10 432.30 L 352.50 422.90 L 354.90 391.60 L 361.40 318.00 L 361.80 316.00 L 362.60 314.40 L 363.90 313.20 L 365.60 312.20 L 368.00 311.60 L 371.20 311.30 L 494.70 311.30 Z" fill="#807d2e" fill-rule="evenodd" group-id="1,2,4" id="路径-252备份-2" node-id="139" stroke="none" target-height="129.6" target-width="307.1" target-x="352.1" target-y="311.3"></path><g node-id="685"><g node-id="714"><path d="M 494.80 308.90 L 643.90 308.90 L 646.20 309.10 L 648.00 309.80 L 649.50 310.90 L 650.80 312.40 L 651.70 314.50 L 652.40 317.30 L 653.10 331.00 L 655.30 361.20 L 661.20 429.50 L 661.10 431.70 L 660.50 433.50 L 659.60 435.00 L 658.30 436.20 L 656.60 437.10 L 654.30 437.70 L 651.30 438.00 L 358.70 438.00 L 356.00 437.30 L 353.90 436.40 L 352.40 435.20 L 351.40 433.60 L 350.80 431.80 L 350.60 429.50 L 351.00 420.10 L 353.50 388.90 L 360.00 315.50 L 360.40 313.50 L 361.30 312.00 L 362.50 310.70 L 364.30 309.80 L 366.70 309.10 L 369.90 308.90 L 494.80 308.90 Z" fill="#ffe4c8" fill-rule="evenodd" group-id="1,2,4,17,46" node-id="596" stroke="none" target-height="129.1" target-width="310.6" target-x="350.6" target-y="308.9"></path></g><g node-id="715"><path d="M 352.50 396.40 L 360.80 388.20 L 364.90 384.70 L 370.00 380.80 L 375.60 377.20 L 381.90 373.70 L 390.90 370.00 L 395.80 368.70 L 400.70 367.80 L 405.80 367.50 L 411.10 367.70 L 415.00 368.30 L 423.10 370.70 L 427.30 372.60 L 431.20 374.80 L 435.20 377.60 L 439.40 381.00 L 447.90 389.20 L 452.30 392.50 L 456.80 395.30 L 461.60 397.40 L 466.50 399.00 L 471.70 400.10 L 477.10 400.60 L 482.90 400.60 L 489.10 399.90 L 495.70 398.50 L 502.70 396.40 L 510.30 393.50 L 518.50 389.70 L 527.30 385.00 L 536.70 379.10 L 546.90 372.00 L 557.90 363.60 L 569.70 353.80 L 587.60 337.40 L 592.50 333.40 L 597.30 330.40 L 601.80 328.20 L 606.20 326.70 L 610.50 325.80 L 614.80 325.50 L 619.10 325.90 L 623.30 326.90 L 627.70 328.60 L 632.20 330.90 L 636.80 334.10 L 641.50 338.20 L 646.50 343.30 L 651.70 349.50 L 657.10 357.10 L 664.50 445.00 L 347.30 442.80 L 352.50 396.40 Z" fill="#ccc85e" fill-rule="evenodd" group-id="1,2,4,17,47" node-id="601" stroke="none" target-height="119.5" target-width="317.2" target-x="347.3" target-y="325.5"></path></g><path d="M 458.30 337.60 L 458.00 340.80 L 457.20 343.70 L 455.90 346.40 L 454.10 348.80 L 452.00 350.80 L 449.60 352.50 L 446.80 353.80 L 443.90 354.60 L 440.70 354.90 L 437.40 354.60 L 434.50 353.80 L 431.80 352.50 L 429.30 350.80 L 427.20 348.80 L 425.40 346.40 L 424.10 343.70 L 423.30 340.80 L 423.00 337.60 L 423.30 334.50 L 424.10 331.60 L 425.40 328.90 L 427.20 326.50 L 429.30 324.50 L 431.80 322.70 L 434.50 321.50 L 437.40 320.70 L 440.70 320.40 L 443.90 320.70 L 446.80 321.50 L 449.60 322.70 L 452.00 324.50 L 454.10 326.50 L 455.90 328.90 L 457.20 331.60 L 458.00 334.50 L 458.30 337.60 Z" fill="#e98744" fill-rule="evenodd" group-id="1,2,4,17,48" id="椭圆形" node-id="145" stroke="none" target-height="34.5" target-width="35.299988" target-x="423" target-y="320.4"></path></g><g node-id="686"><g node-id="717"><path d="M 568.70 263.70 L 552.30 263.70 L 551.40 263.90 L 550.20 265.10 L 550.20 277.20 L 551.40 278.40 L 552.30 278.60 L 557.00 278.60 L 560.50 281.80 L 563.90 278.60 L 568.70 278.60 L 569.60 278.40 L 570.70 277.20 L 570.90 266.00 L 570.30 264.40 L 568.70 263.70 Z M 569.40 276.30 L 569.20 276.90 L 568.70 277.10 L 563.40 277.10 L 560.50 279.80 L 557.60 277.10 L 552.30 277.10 L 551.80 276.90 L 551.50 276.30 L 551.50 266.00 L 551.80 265.40 L 552.30 265.20 L 568.70 265.20 L 569.20 265.40 L 569.40 266.00 L 569.40 276.30 Z" fill="#9cd3a7" fill-rule="nonzero" group-id="1,2,4,18,49" id="形状" node-id="148" stroke="none" target-height="18.099976" target-width="20.700012" target-x="550.2" target-y="263.7"></path><path d="M 556.10 270.20 L 555.50 270.30 L 554.70 271.10 L 554.70 272.30 L 555.50 273.10 L 556.70 273.10 L 557.50 272.30 L 557.50 271.10 L 556.70 270.30 L 556.10 270.20 Z" fill="#a0d5ab" fill-rule="nonzero" group-id="1,2,4,18,49" id="形状" node-id="149" stroke="none" target-height="2.899994" target-width="2.7999878" target-x="554.7" target-y="270.2"></path><path d="M 560.00 270.20 L 559.40 270.30 L 558.60 271.10 L 558.60 272.30 L 559.40 273.10 L 560.60 273.10 L 561.40 272.30 L 561.40 271.10 L 560.60 270.30 L 560.00 270.20 Z" fill="#a0d5ab" fill-rule="nonzero" group-id="1,2,4,18,49" id="形状备份" node-id="150" stroke="none" target-height="2.899994" target-width="2.8000488" target-x="558.6" target-y="270.2"></path><path d="M 563.90 270.20 L 563.30 270.30 L 562.50 271.10 L 562.50 272.30 L 563.30 273.10 L 564.50 273.10 L 565.30 272.30 L 565.30 271.10 L 564.50 270.30 L 563.90 270.20 Z" fill="#a0d5ab" fill-rule="nonzero" group-id="1,2,4,18,49" id="形状备份-2" node-id="151" stroke="none" target-height="2.899994" target-width="2.7999878" target-x="562.5" target-y="270.2"></path></g><g node-id="718"><path d="M 596.80 273.40 L 596.30 274.40 L 596.20 275.60 L 596.90 279.70 L 593.30 277.80 L 592.20 277.50 L 591.10 277.80 L 587.50 279.70 L 588.10 275.60 L 588.00 274.40 L 587.50 273.40 L 584.50 270.50 L 588.60 269.90 L 589.60 269.40 L 590.40 268.50 L 592.20 264.70 L 594.00 268.50 L 594.70 269.40 L 595.70 269.90 L 599.80 270.50 L 596.80 273.40 Z M 601.50 271.10 L 601.90 270.40 L 601.50 269.20 L 596.00 268.20 L 595.40 267.80 L 593.20 263.20 L 592.80 262.60 L 592.20 262.40 L 591.10 263.20 L 588.90 267.80 L 588.30 268.20 L 582.80 269.20 L 582.40 270.40 L 582.80 271.10 L 586.50 274.90 L 585.70 280.30 L 585.80 281.10 L 586.10 281.60 L 586.80 281.80 L 592.20 279.20 L 596.80 281.60 L 597.50 281.80 L 598.20 281.60 L 598.60 280.30 L 597.80 274.90 L 601.50 271.10 Z" fill="#ffde23" fill-rule="nonzero" group-id="1,2,4,18,50" id="形状" node-id="153" stroke="none" target-height="19.399994" target-width="19.5" target-x="582.4" target-y="262.4"></path></g><g node-id="719"><path d="M 627.20 263.70 L 624.40 264.50 L 623.20 265.40 L 620.60 263.90 L 617.70 263.90 L 616.40 264.50 L 615.10 265.50 L 613.60 268.20 L 613.60 271.20 L 615.00 273.90 L 622.20 281.40 L 623.20 281.80 L 624.10 281.40 L 631.30 273.90 L 632.80 271.20 L 632.80 268.20 L 631.30 265.50 L 630.00 264.50 L 627.20 263.70 Z" fill="#f88282" fill-rule="nonzero" group-id="1,2,4,18,51" id="路径" node-id="155" stroke="none" target-height="18.099976" target-width="19.200012" target-x="613.6" target-y="263.7"></path></g><g node-id="720"><g node-id="729"><path d="M 400.10 275.40 L 399.40 279.00 L 398.70 280.60 L 396.40 283.20 L 393.30 285.00 L 389.70 285.70 L 386.00 285.00 L 382.90 283.20 L 380.60 280.60 L 379.90 279.00 L 379.20 275.40 L 379.90 271.70 L 380.60 270.10 L 382.90 267.50 L 386.00 265.70 L 389.70 265.00 L 393.30 265.70 L 396.40 267.50 L 398.70 270.10 L 399.40 271.70 L 400.10 275.40 Z" fill="#afd1d2" fill-rule="evenodd" group-id="1,2,4,18,52,61" node-id="624" stroke="none" target-height="20.700012" target-width="20.899994" target-x="379.2" target-y="265"></path></g><g node-id="730"><path d="M 393.60 272.80 L 393.30 274.30 L 392.40 275.50 L 391.20 276.30 L 389.70 276.60 L 388.10 276.30 L 386.90 275.50 L 386.10 274.30 L 385.70 272.80 L 386.10 271.30 L 386.90 270.00 L 388.10 269.20 L 389.70 268.90 L 391.20 269.20 L 392.40 270.00 L 393.30 271.30 L 393.60 272.80 Z" fill="#639598" fill-rule="evenodd" group-id="1,2,4,18,52,62" node-id="629" stroke="none" target-height="7.700012" target-width="7.899994" target-x="385.7" target-y="268.9"></path></g><path d="M 398.80 287.00 L 398.50 289.40 L 397.50 291.50 L 396.10 293.40 L 394.30 294.80 L 392.10 295.70 L 389.70 296.00 L 387.20 295.70 L 385.00 294.80 L 383.20 293.40 L 381.80 291.50 L 380.90 289.40 L 380.50 287.00 L 380.90 284.60 L 381.80 282.40 L 383.20 280.60 L 385.00 279.20 L 387.20 278.30 L 389.70 277.90 L 392.10 278.30 L 394.30 279.20 L 396.10 280.60 L 397.50 282.40 L 398.50 284.60 L 398.80 287.00 Z" fill="#639598" fill-rule="evenodd" group-id="1,2,4,18,52,63" node-id="634" stroke="none" target-height="18.100006" target-width="18.299988" target-x="380.5" target-y="277.9"></path></g><path d="M 407.90 270.20 L 458.80 270.20 L 458.80 271.50 L 407.90 271.50 Z" fill="#639598" fill-rule="evenodd" group-id="1,2,4,18" id="矩形" node-id="162" stroke="none" target-height="1.2999878" target-width="50.899994" target-x="407.9" target-y="270.2"></path><path d="M 407.90 277.90 L 439.20 277.90 L 439.20 279.20 L 407.90 279.20 Z" fill="#639598" fill-rule="evenodd" group-id="1,2,4,18" id="矩形备份" node-id="163" stroke="none" target-height="1.3000183" target-width="31.300018" target-x="407.9" target-y="277.9"></path></g><g node-id="687"><g node-id="721"><path d="M 589.60 448.30 L 572.20 448.30 L 571.30 448.50 L 570.00 449.70 L 570.00 462.70 L 571.30 464.00 L 572.20 464.20 L 577.30 464.20 L 580.90 467.70 L 584.60 464.20 L 589.60 464.20 L 590.60 464.00 L 591.80 462.70 L 592.00 450.70 L 591.30 449.00 L 589.60 448.30 Z M 590.40 461.80 L 590.20 462.40 L 589.60 462.60 L 584.00 462.60 L 580.90 465.50 L 577.90 462.60 L 572.20 462.60 L 571.70 462.40 L 571.40 461.80 L 571.40 450.70 L 571.70 450.10 L 572.20 449.90 L 589.60 449.90 L 590.20 450.10 L 590.40 450.70 L 590.40 461.80 Z" fill="#8bcc97" fill-rule="nonzero" group-id="1,2,4,19,53" id="形状" node-id="166" stroke="none" target-height="19.400024" target-width="22" target-x="570" target-y="448.3"></path><path d="M 576.20 455.20 L 575.60 455.30 L 574.70 456.10 L 574.70 457.30 L 575.60 458.10 L 576.80 458.10 L 577.60 457.30 L 577.60 456.10 L 576.80 455.30 L 576.20 455.20 Z" fill="#9cd3a7" fill-rule="nonzero" group-id="1,2,4,19,53" id="形状" node-id="167" stroke="none" target-height="2.899994" target-width="2.8999634" target-x="574.7" target-y="455.2"></path><path d="M 580.30 455.20 L 579.70 455.30 L 578.90 456.10 L 578.90 457.30 L 579.70 458.10 L 580.90 458.10 L 581.70 457.30 L 581.70 456.10 L 580.90 455.30 L 580.30 455.20 Z" fill="#9cd3a7" fill-rule="nonzero" group-id="1,2,4,19,53" id="形状备份" node-id="168" stroke="none" target-height="2.899994" target-width="2.7999878" target-x="578.9" target-y="455.2"></path><path d="M 584.50 455.20 L 583.90 455.30 L 583.00 456.10 L 583.00 457.30 L 583.90 458.10 L 585.10 458.10 L 585.90 457.30 L 585.90 456.10 L 585.10 455.30 L 584.50 455.20 Z" fill="#9cd3a7" fill-rule="nonzero" group-id="1,2,4,19,53" id="形状备份-2" node-id="169" stroke="none" target-height="2.899994" target-width="2.9000244" target-x="583" target-y="455.2"></path></g><g node-id="722"><path d="M 619.20 458.70 L 618.60 459.80 L 618.50 461.00 L 619.20 465.40 L 615.40 463.40 L 614.20 463.10 L 613.00 463.40 L 609.20 465.40 L 609.90 461.00 L 609.80 459.80 L 609.20 458.70 L 606.10 455.60 L 610.40 454.90 L 611.50 454.40 L 612.30 453.50 L 614.20 449.50 L 616.10 453.50 L 616.90 454.40 L 618.00 454.90 L 622.30 455.60 L 619.20 458.70 Z" fill="#ffde23" fill-rule="nonzero" group-id="1,2,4,19,54" id="形状" node-id="171" stroke="none" target-height="15.899994" target-width="16.200012" target-x="606.1" target-y="449.5"></path><path d="M 624.20 456.20 L 624.60 455.50 L 624.60 454.80 L 624.20 454.20 L 617.90 453.00 L 615.40 447.80 L 614.90 447.20 L 614.20 447.00 L 613.50 447.20 L 613.00 447.80 L 610.50 453.00 L 604.20 454.20 L 603.80 454.80 L 603.80 455.50 L 604.20 456.20 L 608.20 460.30 L 607.30 466.00 L 607.40 466.90 L 607.80 467.40 L 608.50 467.70 L 614.20 464.90 L 619.20 467.50 L 620.00 467.70 L 620.60 467.40 L 621.00 466.90 L 621.10 466.00 L 620.20 460.30 L 624.20 456.20 Z" fill="#ffde23" fill-rule="nonzero" group-id="1,2,4,19,54" id="路径" node-id="172" stroke="none" target-height="20.700012" target-width="20.799988" target-x="603.8" target-y="447"></path></g><g node-id="723"><path d="M 652.40 450.00 L 653.70 450.20 L 654.90 450.80 L 655.90 451.80 L 656.80 454.10 L 656.80 455.50 L 655.60 458.00 L 648.10 465.80 L 640.00 457.10 L 639.30 454.80 L 639.50 453.50 L 640.70 451.40 L 642.70 450.20 L 643.80 450.00 L 646.00 450.60 L 648.10 452.50 L 650.20 450.60 L 652.40 450.00" fill="#f88282" fill-rule="nonzero" group-id="1,2,4,19,55" id="形状" node-id="174" stroke="none" target-height="15.799988" target-width="17.5" target-x="639.3" target-y="450"></path></g><g node-id="724"><g node-id="732"><path d="M 375.50 459.30 L 374.80 463.10 L 374.00 464.80 L 371.60 467.60 L 368.30 469.50 L 364.40 470.20 L 360.50 469.50 L 357.30 467.60 L 354.80 464.80 L 354.00 463.10 L 353.30 459.30 L 354.00 455.40 L 354.80 453.70 L 357.30 450.90 L 360.50 449.00 L 364.40 448.30 L 368.30 449.00 L 371.60 450.90 L 374.00 453.70 L 374.80 455.40 L 375.50 459.30 Z" fill="#afd1d2" fill-rule="evenodd" group-id="1,2,4,19,56,64" node-id="657" stroke="none" target-height="21.900024" target-width="22.200012" target-x="353.3" target-y="448.3"></path></g><g node-id="733"><path d="M 368.60 456.50 L 368.20 458.10 L 367.30 459.40 L 366.00 460.30 L 364.40 460.60 L 362.80 460.30 L 361.50 459.40 L 360.60 458.10 L 360.20 456.50 L 360.60 454.90 L 361.50 453.60 L 362.80 452.70 L 364.40 452.40 L 366.00 452.70 L 367.30 453.60 L 368.20 454.90 L 368.60 456.50 Z" fill="#639598" fill-rule="evenodd" group-id="1,2,4,19,56,65" node-id="662" stroke="none" target-height="8.200012" target-width="8.399994" target-x="360.2" target-y="452.4"></path></g><path d="M 374.10 471.60 L 373.50 475.00 L 372.80 476.50 L 371.30 478.40 L 369.30 479.90 L 367.80 480.60 L 364.40 481.20 L 361.00 480.60 L 359.50 479.90 L 357.50 478.40 L 356.00 476.50 L 354.90 473.40 L 354.70 471.60 L 355.30 468.30 L 356.00 466.80 L 357.50 464.80 L 359.50 463.30 L 361.00 462.60 L 364.40 462.00 L 367.80 462.60 L 369.30 463.30 L 371.30 464.80 L 372.80 466.80 L 373.50 468.30 L 374.10 471.60 Z" fill="#639598" fill-rule="evenodd" group-id="1,2,4,19,56,66" node-id="667" stroke="none" target-height="19.200012" target-width="19.399994" target-x="354.7" target-y="462"></path></g><path d="M 380.70 454.70 L 434.20 454.70 L 434.20 456.00 L 380.70 456.00 Z" fill="#639598" fill-rule="evenodd" group-id="1,2,4,19" id="矩形" node-id="181" stroke="none" target-height="1.2999878" target-width="53.5" target-x="380.7" target-y="454.7"></path><path d="M 380.70 463.80 L 413.30 463.80 L 413.30 465.10 L 380.70 465.10 Z" fill="#639598" fill-rule="evenodd" group-id="1,2,4,19" id="矩形备份" node-id="182" stroke="none" target-height="1.3000183" target-width="32.599976" target-x="380.7" target-y="463.8"></path></g><path d="M 339.70 515.40 L 339.70 517.90 L 669.10 517.90 L 669.10 515.40 L 508.10 509.30 Z" fill="#ff9424" fill-rule="evenodd" group-id="1,2,4" id="路径-423" node-id="183" stroke="none" target-height="8.600037" target-width="329.39996" target-x="339.7" target-y="509.3"></path><path d="M 343.00 503.20 L 664.50 503.20 L 669.10 515.40 L 339.70 515.40 Z" fill="#ffc180" fill-rule="evenodd" group-id="1,2,4" id="矩形" node-id="184" stroke="none" target-height="12.200012" target-width="329.39996" target-x="339.7" target-y="503.2"></path><path d="M 332.30 553.30 L 332.30 555.80 L 676.50 555.80 L 676.50 553.30 L 510.90 547.20 Z" fill="#fe982e" fill-rule="evenodd" group-id="1,2,4" id="路径-423备份" node-id="185" stroke="none" target-height="8.599976" target-width="344.2" target-x="332.3" target-y="547.2"></path><path d="M 335.60 541.10 L 671.90 541.10 L 676.50 553.30 L 332.30 553.30 Z" fill="#ffc180" fill-rule="evenodd" group-id="1,2,4" id="矩形备份-2" node-id="186" stroke="none" target-height="12.200012" target-width="344.2" target-x="332.3" target-y="541.1"></path><path d="M 529.70 188.50 L 529.40 191.20 L 528.40 193.80 L 526.90 196.20 L 524.80 198.30 L 522.30 200.10 L 519.30 201.70 L 516.10 202.80 L 512.60 203.50 L 508.80 203.80 L 504.90 203.50 L 501.40 202.80 L 498.20 201.70 L 495.20 200.10 L 492.70 198.30 L 490.60 196.20 L 489.10 193.80 L 488.10 191.20 L 487.80 188.50 L 488.10 185.80 L 489.10 183.20 L 490.60 180.80 L 492.70 178.70 L 495.20 176.90 L 498.20 175.30 L 501.40 174.20 L 504.90 173.50 L 508.80 173.20 L 512.60 173.50 L 516.10 174.20 L 519.30 175.30 L 522.30 176.90 L 524.80 178.70 L 526.90 180.80 L 528.40 183.20 L 529.40 185.80 L 529.70 188.50 Z" fill="#ffffff" fill-rule="evenodd" group-id="1,2,4" id="椭圆形" node-id="187" stroke="none" target-height="30.600006" target-width="41.900024" target-x="487.8" target-y="173.2"></path><path d="M 504.10 180.60 L 518.60 190.00 L 503.80 197.70 Z" fill="#ff9424" fill-rule="evenodd" group-id="1,2,4" id="三角形" node-id="188" stroke="none" target-height="17.09999" target-width="14.799988" target-x="503.8" target-y="180.6"></path></g></g></g></svg>