<?xml version="1.0" standalone="no"?><!DOCTYPE svg PUBLIC "-//W3C//DTD SVG 1.1//EN" "http://www.w3.org/Graphics/SVG/1.1/DTD/svg11.dtd"><svg height="1200" node-id="1" sillyvg="true" template-height="1200" template-width="1200" version="1.1" viewBox="0 0 1200 1200" width="1200" xmlns="http://www.w3.org/2000/svg" xmlns:xlink="http://www.w3.org/1999/xlink"><defs node-id="545"><clipPath id="SVGID_2_" node-id="5"><path d="M 911.00 731.50 L 910.70 743.80 L 910.00 755.90 L 908.80 767.80 L 907.10 779.50 L 905.00 791.10 L 902.40 802.60 L 899.40 813.90 L 895.90 825.00 L 892.10 835.80 L 887.80 846.50 L 883.10 857.10 L 878.00 867.30 L 872.50 877.40 L 866.70 887.20 L 860.50 896.70 L 854.00 906.00 L 847.10 915.10 L 839.90 923.80 L 832.30 932.30 L 824.50 940.50 L 816.30 948.30 L 807.80 955.90 L 799.10 963.10 L 790.00 970.00 L 780.70 976.50 L 771.20 982.70 L 761.40 988.50 L 751.30 994.00 L 741.10 999.10 L 730.50 1003.80 L 719.80 1008.10 L 709.00 1011.90 L 697.90 1015.40 L 686.60 1018.40 L 675.10 1021.00 L 663.50 1023.10 L 651.80 1024.80 L 639.90 1026.00 L 627.80 1026.70 L 615.50 1027.00 L 603.20 1026.70 L 591.10 1026.00 L 579.20 1024.80 L 567.50 1023.10 L 555.90 1021.00 L 544.40 1018.40 L 533.10 1015.40 L 522.00 1011.90 L 511.20 1008.10 L 500.50 1003.80 L 489.90 999.10 L 479.70 994.00 L 469.60 988.50 L 459.80 982.70 L 450.30 976.50 L 441.00 970.00 L 431.90 963.10 L 423.20 955.90 L 414.70 948.30 L 406.50 940.50 L 398.70 932.30 L 391.10 923.80 L 383.90 915.10 L 377.00 906.00 L 370.50 896.70 L 364.30 887.20 L 358.50 877.40 L 353.00 867.30 L 347.90 857.10 L 343.20 846.50 L 338.90 835.80 L 335.10 825.00 L 331.60 813.90 L 328.60 802.60 L 326.00 791.10 L 323.90 779.50 L 322.20 767.80 L 321.00 755.90 L 320.30 743.80 L 320.00 731.50 L 320.30 719.20 L 321.00 707.10 L 322.20 695.20 L 323.90 683.50 L 326.00 671.90 L 328.60 660.40 L 331.60 649.10 L 335.10 638.00 L 338.90 627.20 L 343.20 616.50 L 347.90 605.90 L 353.00 595.70 L 358.50 585.60 L 364.30 575.80 L 370.50 566.30 L 377.00 557.00 L 383.90 547.90 L 391.10 539.20 L 398.70 530.70 L 406.50 522.50 L 414.70 514.70 L 423.20 507.10 L 431.90 499.90 L 441.00 493.00 L 450.30 486.50 L 459.80 480.30 L 469.60 474.50 L 479.70 469.00 L 489.90 463.90 L 500.50 459.20 L 511.20 454.90 L 522.00 451.10 L 533.10 447.60 L 544.40 444.60 L 555.90 442.00 L 567.50 439.90 L 579.20 438.20 L 591.10 437.00 L 603.20 436.30 L 615.50 436.00 L 627.80 436.30 L 639.90 437.00 L 651.80 438.20 L 663.50 439.90 L 675.10 442.00 L 686.60 444.60 L 697.90 447.60 L 709.00 451.10 L 719.80 454.90 L 730.50 459.20 L 741.10 463.90 L 751.30 469.00 L 761.40 474.50 L 771.20 480.30 L 780.70 486.50 L 790.00 493.00 L 799.10 499.90 L 807.80 507.10 L 816.30 514.70 L 824.50 522.50 L 832.30 530.70 L 839.90 539.20 L 847.10 547.90 L 854.00 557.00 L 860.50 566.30 L 866.70 575.80 L 872.50 585.60 L 878.00 595.70 L 883.10 605.90 L 887.80 616.50 L 892.10 627.20 L 895.90 638.00 L 899.40 649.10 L 902.40 660.40 L 905.00 671.90 L 907.10 683.50 L 908.80 695.20 L 910.00 707.10 L 910.70 719.20 L 911.00 731.50 Z" fill="#000000" fill-rule="nonzero" node-id="548" stroke="none" target-height="591" target-width="591" target-x="320" target-y="436"></path></clipPath><clipPath id="SVGID_4_" node-id="11"><path d="M 305.00 429.00 L 916.00 429.00 L 916.00 1063.00 L 305.00 1063.00 Z" fill="#000000" fill-rule="nonzero" node-id="552" stroke="none" target-height="634" target-width="611" target-x="305" target-y="429"></path></clipPath><clipPath id="SVGID_6_" node-id="16"><path d="M 320.00 436.00 L 911.00 436.00 L 911.00 1027.00 L 320.00 1027.00 L 320.00 436.00" fill="#000000" fill-rule="nonzero" node-id="556" stroke="none" target-height="591" target-width="591" target-x="320" target-y="436"></path></clipPath><clipPath id="SVGID_8_" node-id="22"><path d="" fill="none" node-id="0" stroke="none" target-height="0" target-width="0" target-x="0" target-y="0"></path></clipPath><clipPath id="SVGID_10_" node-id="27"><path d="" fill="none" node-id="0" stroke="none" target-height="0" target-width="0" target-x="0" target-y="0"></path></clipPath><clipPath id="SVGID_12_" node-id="33"><path d="M 661.00 424.00 L 795.00 424.00 L 795.00 552.00 L 661.00 552.00 Z" fill="#000000" fill-rule="nonzero" node-id="568" stroke="none" target-height="128" target-width="134" target-x="661" target-y="424"></path></clipPath><clipPath id="SVGID_14_" node-id="38"><path d="M 666.00 436.00 L 782.00 436.00 L 782.00 545.00 L 666.00 545.00 L 666.00 436.00" fill="#000000" fill-rule="nonzero" node-id="572" stroke="none" target-height="109" target-width="116" target-x="666" target-y="436"></path></clipPath><clipPath id="SVGID_16_" node-id="44"><path d="" fill="none" node-id="0" stroke="none" target-height="0" target-width="0" target-x="0" target-y="0"></path></clipPath><clipPath id="SVGID_18_" node-id="49"><path d="" fill="none" node-id="0" stroke="none" target-height="0" target-width="0" target-x="0" target-y="0"></path></clipPath><clipPath id="SVGID_20_" node-id="55"><path d="" fill="none" node-id="0" stroke="none" target-height="0" target-width="0" target-x="0" target-y="0"></path></clipPath><clipPath id="SVGID_22_" node-id="60"><path d="" fill="none" node-id="0" stroke="none" target-height="0" target-width="0" target-x="0" target-y="0"></path></clipPath><clipPath id="SVGID_24_" node-id="66"><path d="M 449.00 688.00 L 559.00 688.00 L 559.00 793.00 L 449.00 793.00 Z" fill="#000000" fill-rule="nonzero" node-id="592" stroke="none" target-height="105" target-width="110" target-x="449" target-y="688"></path></clipPath><clipPath id="SVGID_26_" node-id="71"><path d="M 454.00 693.00 L 548.00 693.00 L 548.00 787.00 L 454.00 787.00 L 454.00 693.00" fill="#000000" fill-rule="nonzero" node-id="596" stroke="none" target-height="94" target-width="94" target-x="454" target-y="693"></path></clipPath><clipPath id="SVGID_28_" node-id="77"><path d="" fill="none" node-id="0" stroke="none" target-height="0" target-width="0" target-x="0" target-y="0"></path></clipPath><clipPath id="SVGID_30_" node-id="82"><path d="" fill="none" node-id="0" stroke="none" target-height="0" target-width="0" target-x="0" target-y="0"></path></clipPath><clipPath id="SVGID_32_" node-id="88"><path d="" fill="none" node-id="0" stroke="none" target-height="0" target-width="0" target-x="0" target-y="0"></path></clipPath><clipPath id="SVGID_34_" node-id="93"><path d="" fill="none" node-id="0" stroke="none" target-height="0" target-width="0" target-x="0" target-y="0"></path></clipPath><clipPath id="SVGID_36_" node-id="99"><path d="M 583.00 964.00 L 693.00 964.00 L 693.00 1069.00 L 583.00 1069.00 Z" fill="#000000" fill-rule="nonzero" node-id="616" stroke="none" target-height="105" target-width="110" target-x="583" target-y="964"></path></clipPath><clipPath id="SVGID_38_" node-id="104"><path d="M 588.00 969.00 L 682.00 969.00 L 682.00 1027.00 L 588.00 1027.00 L 588.00 969.00" fill="#000000" fill-rule="nonzero" node-id="620" stroke="none" target-height="58" target-width="94" target-x="588" target-y="969"></path></clipPath><clipPath id="SVGID_40_" node-id="110"><path d="" fill="none" node-id="0" stroke="none" target-height="0" target-width="0" target-x="0" target-y="0"></path></clipPath><clipPath id="SVGID_42_" node-id="115"><path d="" fill="none" node-id="0" stroke="none" target-height="0" target-width="0" target-x="0" target-y="0"></path></clipPath><clipPath id="SVGID_44_" node-id="121"><path d="" fill="none" node-id="0" stroke="none" target-height="0" target-width="0" target-x="0" target-y="0"></path></clipPath><clipPath id="SVGID_46_" node-id="126"><path d="" fill="none" node-id="0" stroke="none" target-height="0" target-width="0" target-x="0" target-y="0"></path></clipPath><clipPath id="SVGID_48_" node-id="132"><path d="M 300.00 578.00 L 410.00 578.00 L 410.00 683.00 L 300.00 683.00 Z" fill="#000000" fill-rule="nonzero" node-id="640" stroke="none" target-height="105" target-width="110" target-x="300" target-y="578"></path></clipPath><clipPath id="SVGID_50_" node-id="137"><path d="M 320.00 583.00 L 399.00 583.00 L 399.00 677.00 L 320.00 677.00 L 320.00 583.00" fill="#000000" fill-rule="nonzero" node-id="644" stroke="none" target-height="94" target-width="79" target-x="320" target-y="583"></path></clipPath><clipPath id="SVGID_52_" node-id="143"><path d="" fill="none" node-id="0" stroke="none" target-height="0" target-width="0" target-x="0" target-y="0"></path></clipPath><clipPath id="SVGID_54_" node-id="148"><path d="" fill="none" node-id="0" stroke="none" target-height="0" target-width="0" target-x="0" target-y="0"></path></clipPath><clipPath id="SVGID_56_" node-id="154"><path d="" fill="none" node-id="0" stroke="none" target-height="0" target-width="0" target-x="0" target-y="0"></path></clipPath><clipPath id="SVGID_58_" node-id="159"><path d="" fill="none" node-id="0" stroke="none" target-height="0" target-width="0" target-x="0" target-y="0"></path></clipPath><clipPath id="SVGID_60_" node-id="165"><path d="M 489.00 562.00 L 567.00 562.00 L 567.00 638.00 L 489.00 638.00 Z" fill="#000000" fill-rule="nonzero" node-id="664" stroke="none" target-height="76" target-width="78" target-x="489" target-y="562"></path></clipPath><clipPath id="SVGID_62_" node-id="170"><path d="M 494.00 567.00 L 560.00 567.00 L 560.00 633.00 L 494.00 633.00 L 494.00 567.00" fill="#000000" fill-rule="nonzero" node-id="668" stroke="none" target-height="66" target-width="66" target-x="494" target-y="567"></path></clipPath><clipPath id="SVGID_64_" node-id="176"><path d="" fill="none" node-id="0" stroke="none" target-height="0" target-width="0" target-x="0" target-y="0"></path></clipPath><clipPath id="SVGID_66_" node-id="181"><path d="" fill="none" node-id="0" stroke="none" target-height="0" target-width="0" target-x="0" target-y="0"></path></clipPath><clipPath id="SVGID_68_" node-id="187"><path d="" fill="none" node-id="0" stroke="none" target-height="0" target-width="0" target-x="0" target-y="0"></path></clipPath><clipPath id="SVGID_70_" node-id="192"><path d="" fill="none" node-id="0" stroke="none" target-height="0" target-width="0" target-x="0" target-y="0"></path></clipPath><clipPath id="SVGID_72_" node-id="198"><path d="M 776.00 645.00 L 854.00 645.00 L 854.00 721.00 L 776.00 721.00 Z" fill="#000000" fill-rule="nonzero" node-id="688" stroke="none" target-height="76" target-width="78" target-x="776" target-y="645"></path></clipPath><clipPath id="SVGID_74_" node-id="203"><path d="M 781.00 650.00 L 847.00 650.00 L 847.00 716.00 L 781.00 716.00 L 781.00 650.00" fill="#000000" fill-rule="nonzero" node-id="692" stroke="none" target-height="66" target-width="66" target-x="781" target-y="650"></path></clipPath><clipPath id="SVGID_76_" node-id="209"><path d="" fill="none" node-id="0" stroke="none" target-height="0" target-width="0" target-x="0" target-y="0"></path></clipPath><clipPath id="SVGID_78_" node-id="214"><path d="" fill="none" node-id="0" stroke="none" target-height="0" target-width="0" target-x="0" target-y="0"></path></clipPath><clipPath id="SVGID_80_" node-id="220"><path d="" fill="none" node-id="0" stroke="none" target-height="0" target-width="0" target-x="0" target-y="0"></path></clipPath><clipPath id="SVGID_82_" node-id="225"><path d="" fill="none" node-id="0" stroke="none" target-height="0" target-width="0" target-x="0" target-y="0"></path></clipPath><clipPath id="SVGID_84_" node-id="231"><path d="M 653.00 646.00 L 712.00 646.00 L 712.00 705.00 L 653.00 705.00 Z" fill="#000000" fill-rule="nonzero" node-id="712" stroke="none" target-height="59" target-width="59" target-x="653" target-y="646"></path></clipPath><clipPath id="SVGID_86_" node-id="236"><path d="M 658.00 651.00 L 707.00 651.00 L 707.00 700.00 L 658.00 700.00 L 658.00 651.00" fill="#000000" fill-rule="nonzero" node-id="716" stroke="none" target-height="49" target-width="49" target-x="658" target-y="651"></path></clipPath><clipPath id="SVGID_88_" node-id="242"><path d="" fill="none" node-id="0" stroke="none" target-height="0" target-width="0" target-x="0" target-y="0"></path></clipPath><clipPath id="SVGID_90_" node-id="247"><path d="" fill="none" node-id="0" stroke="none" target-height="0" target-width="0" target-x="0" target-y="0"></path></clipPath><clipPath id="SVGID_92_" node-id="253"><path d="M 497.60 978.70 L 988.90 883.00 L 996.80 880.20 L 1003.10 877.40 L 1008.20 874.70 L 1012.10 871.90 L 1015.10 869.20 L 1017.30 866.60 L 1018.80 863.90 L 1021.00 858.50 L 1022.30 854.30 L 1023.10 850.20 L 1023.50 846.50 L 1023.60 829.80 L 1022.50 823.30 L 1021.20 819.00 L 1016.60 808.70 L 1000.10 777.40 L 925.00 636.70 L 923.10 633.90 L 920.70 631.40 L 917.80 629.20 L 914.40 627.30 L 910.30 625.70 L 905.50 624.50 L 899.80 623.60 L 893.10 623.30 L 885.30 623.50 L 876.20 624.30 L 865.70 625.90 L 277.80 735.40 L 266.40 738.10 L 260.00 740.50 L 256.00 743.10 L 251.70 747.90 L 248.20 754.10 L 246.70 758.00 L 245.60 762.10 L 244.90 766.60 L 244.60 771.60 L 244.90 776.50 L 245.90 782.00 L 247.60 787.90 L 254.50 806.70 L 276.10 863.30 L 325.20 990.10 L 328.90 994.10 L 332.90 997.50 L 336.90 1000.30 L 341.20 1002.60 L 345.80 1004.30 L 350.60 1005.50 L 355.70 1006.10 L 361.10 1006.20 L 366.90 1005.70 L 373.20 1004.60 L 497.60 978.70 Z" fill="#000000" fill-rule="nonzero" node-id="728" stroke="none" target-height="382.90002" target-width="779" target-x="244.6" target-y="623.3"></path></clipPath><clipPath id="SVGID_94_" node-id="259"><path d="M 239.00 613.00 L 1030.00 613.00 L 1030.00 1012.00 L 239.00 1012.00 Z" fill="#000000" fill-rule="nonzero" node-id="732" stroke="none" target-height="399" target-width="791" target-x="239" target-y="613"></path></clipPath><clipPath id="SVGID_96_" node-id="264"><path d="M 239.00 620.00 L 1025.00 620.00 L 1025.00 1010.00 L 239.00 1010.00 L 239.00 620.00" fill="#000000" fill-rule="nonzero" node-id="736" stroke="none" target-height="390" target-width="786" target-x="239" target-y="620"></path></clipPath><clipPath id="SVGID_98_" node-id="270"><path d="M 259.30 738.40 L 882.30 613.40 L 920.20 617.30 L 259.30 738.40" fill="#000000" fill-rule="nonzero" node-id="740" stroke="none" target-height="125" target-width="660.9" target-x="259.3" target-y="613.4"></path></clipPath><clipPath id="SVGID_100_" node-id="275"><path d="M 259.30 738.40 L 849.40 620.00 L 905.50 620.00 L 259.30 738.40" fill="#000000" fill-rule="nonzero" node-id="744" stroke="none" target-height="118.400024" target-width="646.2" target-x="259.3" target-y="620"></path></clipPath><clipPath id="SVGID_102_" node-id="281"><path d="" fill="none" node-id="0" stroke="none" target-height="0" target-width="0" target-x="0" target-y="0"></path></clipPath><clipPath id="SVGID_104_" node-id="286"><path d="" fill="none" node-id="0" stroke="none" target-height="0" target-width="0" target-x="0" target-y="0"></path></clipPath><clipPath id="SVGID_106_" node-id="292"><path d="M 582.60 693.70 L 284.00 750.60 L 280.90 751.90 L 278.50 753.50 L 276.70 755.40 L 275.30 757.60 L 274.40 760.20 L 274.00 763.20 L 274.20 766.80 L 274.90 771.00 L 276.50 776.00 L 302.70 842.80 L 348.10 956.40 L 349.40 958.90 L 351.10 961.00 L 353.20 962.80 L 355.80 964.20 L 358.80 965.20 L 362.50 965.90 L 367.00 966.20 L 372.30 965.90 L 378.60 965.00 L 980.60 846.70 L 986.20 844.30 L 990.60 841.80 L 993.90 839.30 L 996.40 836.90 L 998.10 834.40 L 999.10 831.80 L 999.60 829.20 L 999.50 826.40 L 998.90 823.40 L 983.40 790.30 L 975.90 775.20 L 967.60 759.90 L 966.90 759.10 L 965.90 758.60 L 964.60 758.50 L 962.40 758.60 L 954.20 760.00 L 951.50 760.30 L 949.20 760.10 L 947.90 759.70 L 946.80 758.90 L 946.00 757.70 L 924.70 713.90 L 924.90 712.60 L 925.70 711.80 L 935.80 705.90 L 937.30 704.80 L 938.00 703.90 L 938.20 703.10 L 938.10 702.40 L 911.10 650.90 L 908.60 647.70 L 905.70 645.00 L 902.50 642.80 L 898.90 641.10 L 894.80 639.90 L 890.20 639.10 L 884.90 639.00 L 878.90 639.40 L 865.60 641.50 L 741.80 663.90 L 582.60 693.70 Z" fill="#000000" fill-rule="nonzero" node-id="756" stroke="none" target-height="327.2" target-width="725.6" target-x="274" target-y="639"></path></clipPath><clipPath id="SVGID_108_" node-id="298"><path d="M 269.00 634.00 L 1005.00 634.00 L 1005.00 972.00 L 269.00 972.00 Z" fill="#000000" fill-rule="nonzero" node-id="760" stroke="none" target-height="338" target-width="736" target-x="269" target-y="634"></path></clipPath><clipPath id="SVGID_110_" node-id="303"><path d="M 271.00 637.00 L 1004.00 637.00 L 1004.00 969.00 L 271.00 969.00 L 271.00 637.00" fill="#000000" fill-rule="nonzero" node-id="764" stroke="none" target-height="332" target-width="733" target-x="271" target-y="637"></path></clipPath><clipPath id="SVGID_112_" node-id="309"><path d="M 487.60 960.10 L 542.40 688.00 L 594.60 667.90 L 542.40 947.70 L 487.60 960.10" fill="#000000" fill-rule="nonzero" node-id="768" stroke="none" target-height="292.19995" target-width="106.99997" target-x="487.6" target-y="667.9"></path></clipPath><clipPath id="SVGID_114_" node-id="314"><path d="M 487.60 960.10 L 542.40 688.00 L 594.60 667.90 L 542.40 947.70 L 487.60 960.10" fill="#000000" fill-rule="nonzero" node-id="772" stroke="none" target-height="292.19995" target-width="106.99997" target-x="487.6" target-y="667.9"></path></clipPath><clipPath id="SVGID_116_" node-id="320"><path d="M 557.70 960.10 L 606.20 682.90 L 626.00 676.20 L 570.20 954.70 L 557.70 960.10" fill="#000000" fill-rule="nonzero" node-id="776" stroke="none" target-height="283.89996" target-width="68.29999" target-x="557.7" target-y="676.2"></path></clipPath><clipPath id="SVGID_118_" node-id="325"><path d="M 557.70 960.10 L 606.20 682.90 L 626.00 676.20 L 570.20 954.70 L 557.70 960.10" fill="#000000" fill-rule="nonzero" node-id="780" stroke="none" target-height="283.89996" target-width="68.29999" target-x="557.7" target-y="676.2"></path></clipPath><clipPath id="SVGID_120_" node-id="331"><path d="M 818.40 466.50 L 812.70 484.70 L 809.00 494.60 L 804.30 505.90 L 796.40 521.50 L 791.40 530.20 L 786.00 538.70 L 779.60 547.90 L 772.10 557.80 L 764.30 567.40 L 755.20 577.60 L 737.30 596.70 L 730.80 604.50 L 725.20 612.20 L 720.40 619.80 L 716.30 627.40 L 713.00 634.90 L 710.30 642.30 L 708.30 649.70 L 706.90 657.20 L 706.20 664.60 L 706.00 672.10 L 706.50 679.60 L 707.60 687.30 L 709.30 695.10 L 711.70 703.00 L 711.10 694.70 L 711.20 686.70 L 711.80 679.00 L 713.00 671.50 L 714.70 664.20 L 717.00 657.20 L 719.80 650.20 L 723.20 643.50 L 727.20 636.80 L 731.80 630.30 L 737.00 623.90 L 743.00 617.60 L 749.70 611.40 L 764.30 599.40 L 772.00 592.70 L 780.10 584.90 L 787.90 576.80 L 804.10 558.30 L 811.90 548.40 L 819.70 538.00 L 827.40 526.90 L 834.70 515.60 L 841.70 503.90 L 848.40 491.80 L 854.60 479.50 L 860.30 466.90 L 865.40 454.20 L 868.90 444.50 L 871.90 434.90 L 876.80 415.50 L 878.60 405.60 L 879.90 395.90 L 880.70 386.30 L 881.00 376.70 L 880.70 368.40 L 879.90 361.40 L 878.80 355.50 L 877.20 350.60 L 875.40 346.50 L 873.30 343.10 L 870.90 340.30 L 868.30 338.00 L 865.30 336.30 L 862.10 335.00 L 858.50 334.30 L 854.40 334.00 L 852.00 334.30 L 849.80 335.10 L 847.70 336.50 L 845.60 338.60 L 843.20 341.70 L 840.90 345.70 L 838.70 350.80 L 836.90 356.10 L 833.50 368.60 L 831.40 378.80 L 827.90 401.10 L 821.20 452.80 L 819.80 460.80 L 818.40 466.50 Z" fill="#000000" fill-rule="nonzero" node-id="784" stroke="none" target-height="369" target-width="175" target-x="706" target-y="334"></path></clipPath><clipPath id="SVGID_122_" node-id="337"><path d="M 875.90 344.40 L 878.90 336.30 L 884.40 324.10 L 889.30 316.00 L 892.10 312.40 L 895.00 309.40 L 898.10 307.00 L 900.50 305.40 L 905.80 303.50 L 908.60 303.10 L 911.40 303.10 L 914.40 303.50 L 917.60 304.30 L 921.20 305.70 L 924.40 307.50 L 927.20 309.80 L 929.50 312.40 L 931.40 315.50 L 932.80 318.90 L 933.80 322.70 L 934.60 326.90 L 934.90 331.70 L 934.80 338.00 L 934.10 345.00 L 932.80 352.90 L 928.80 368.90 L 922.90 386.50 L 915.50 405.10 L 904.80 428.30 L 898.20 441.50 L 882.40 471.10 L 873.50 486.60 L 864.10 502.00 L 854.40 517.30 L 844.20 532.20 L 834.10 546.20 L 827.00 555.20 L 813.40 570.90 L 806.30 578.20 L 799.50 584.30 L 781.70 598.10 L 771.60 606.50 L 762.70 614.60 L 756.30 621.00 L 750.50 627.40 L 745.30 633.60 L 740.70 639.80 L 736.30 646.30 L 732.50 652.90 L 729.20 659.50 L 726.30 666.20 L 723.90 673.10 L 721.80 680.20 L 720.20 687.50 L 719.00 695.00 L 719.00 685.70 L 719.60 676.70 L 720.80 667.90 L 722.50 659.40 L 724.70 651.20 L 727.40 643.10 L 730.70 635.30 L 734.60 627.60 L 739.00 620.10 L 744.00 612.70 L 749.60 605.50 L 755.80 598.40 L 762.70 591.40 L 770.30 584.50 L 783.50 573.70 L 788.40 569.10 L 793.20 564.00 L 797.80 558.30 L 803.60 550.50 L 809.20 541.90 L 814.60 532.50 L 824.50 513.00 L 829.10 502.50 L 835.50 486.50 L 841.40 470.10 L 846.80 453.60 L 856.20 421.50 L 860.10 406.60 L 872.10 358.00 L 875.90 344.40 Z" fill="#000000" fill-rule="nonzero" node-id="788" stroke="none" target-height="391.9" target-width="215.90002" target-x="719" target-y="303.1"></path></clipPath><clipPath id="SVGID_124_" node-id="343"><path d="M 810.00 611.00 L 826.20 601.10 L 841.30 591.20 L 855.30 581.50 L 868.30 571.80 L 880.30 562.10 L 891.40 552.60 L 901.60 543.10 L 910.90 533.60 L 919.40 524.30 L 927.20 515.00 L 934.20 505.70 L 940.50 496.50 L 946.20 487.30 L 951.20 478.10 L 956.00 467.20 L 960.50 458.30 L 964.80 451.20 L 968.80 445.60 L 972.50 441.20 L 976.00 438.00 L 979.40 435.70 L 982.50 434.10 L 985.60 433.20 L 988.60 433.00 L 991.60 433.30 L 994.60 434.20 L 997.00 435.50 L 999.00 437.00 L 1000.50 438.90 L 1001.70 441.10 L 1002.50 443.70 L 1002.90 447.10 L 1002.80 451.00 L 1002.10 455.50 L 1000.70 460.80 L 996.60 471.00 L 993.60 477.00 L 989.90 483.50 L 984.60 491.70 L 978.30 500.60 L 970.70 510.20 L 962.80 519.40 L 953.80 529.00 L 943.70 539.00 L 934.50 547.40 L 924.80 555.40 L 914.60 563.00 L 903.80 570.30 L 892.30 577.20 L 880.30 583.80 L 867.70 590.00 L 854.30 595.80 L 840.30 601.30 L 825.50 606.30 L 810.00 611.00 Z" fill="#000000" fill-rule="nonzero" node-id="792" stroke="none" target-height="178" target-width="192.90002" target-x="810" target-y="433"></path></clipPath><clipPath id="SVGID_126_" node-id="349"><path d="M 738.00 718.00 L 744.10 706.50 L 750.40 695.90 L 757.00 686.00 L 763.80 676.90 L 770.80 668.50 L 778.00 660.80 L 785.50 653.80 L 793.30 647.30 L 801.20 641.50 L 809.50 636.20 L 818.00 631.50 L 826.80 627.40 L 846.90 619.50 L 857.70 614.70 L 868.10 609.40 L 878.20 603.50 L 888.00 597.00 L 897.60 590.00 L 906.90 582.40 L 916.00 574.20 L 924.80 565.40 L 933.40 555.90 L 941.70 545.80 L 944.80 542.70 L 947.80 540.20 L 950.80 538.40 L 953.90 537.10 L 957.00 536.30 L 960.20 536.00 L 963.60 536.20 L 967.10 537.00 L 968.80 537.70 L 970.50 538.90 L 972.10 540.60 L 973.50 542.60 L 974.60 545.00 L 975.50 548.00 L 976.00 551.00 L 976.00 554.40 L 975.60 558.30 L 974.60 562.10 L 973.10 566.40 L 970.70 571.00 L 967.90 575.40 L 964.20 580.20 L 959.40 585.40 L 954.20 590.20 L 947.80 595.30 L 939.90 600.80 L 931.80 605.80 L 922.10 611.00 L 910.70 616.50 L 899.10 621.50 L 885.60 626.60 L 870.10 631.90 L 851.30 639.30 L 834.40 646.50 L 819.20 653.40 L 805.80 660.20 L 793.90 666.80 L 783.40 673.20 L 774.20 679.40 L 766.20 685.40 L 759.30 691.20 L 753.40 696.90 L 748.40 702.40 L 744.20 707.70 L 740.80 712.90 L 738.00 718.00 Z" fill="#000000" fill-rule="nonzero" node-id="796" stroke="none" target-height="182" target-width="238" target-x="738" target-y="536"></path></clipPath><clipPath id="SVGID_128_" node-id="355"><path d="M 741.00 791.00 L 751.10 774.70 L 760.90 760.00 L 770.30 746.90 L 779.30 735.10 L 788.00 724.70 L 796.40 715.50 L 804.40 707.50 L 812.20 700.50 L 819.60 694.40 L 826.90 689.20 L 833.80 684.90 L 850.00 676.50 L 858.50 671.60 L 866.30 666.70 L 880.60 656.40 L 895.40 644.20 L 914.30 626.50 L 919.10 622.20 L 922.50 619.80 L 926.30 617.80 L 933.40 615.00 L 937.10 614.20 L 940.50 614.00 L 943.80 614.40 L 946.10 615.10 L 948.40 616.20 L 950.60 617.70 L 952.90 619.80 L 953.80 621.00 L 954.90 624.50 L 955.00 627.00 L 954.80 630.20 L 953.90 634.00 L 952.40 638.40 L 950.40 642.70 L 947.70 647.20 L 944.10 652.20 L 940.10 656.90 L 935.20 661.60 L 929.30 666.60 L 919.50 673.20 L 913.70 676.40 L 900.60 682.40 L 893.40 685.00 L 885.40 687.40 L 867.50 691.90 L 858.30 694.90 L 849.10 698.50 L 839.80 702.80 L 830.50 707.80 L 821.00 713.50 L 811.50 720.00 L 801.80 727.30 L 792.00 735.50 L 782.10 744.60 L 772.10 754.60 L 761.90 765.60 L 751.50 777.80 L 741.00 791.00 Z" fill="#000000" fill-rule="nonzero" node-id="800" stroke="none" target-height="177" target-width="214" target-x="741" target-y="614"></path></clipPath><clipPath id="SVGID_130_" node-id="361"><path d="M 960.70 376.00 L 962.50 338.00 L 963.60 306.40 L 964.00 280.40 L 963.80 259.40 L 963.30 242.70 L 962.40 229.60 L 961.30 219.50 L 960.00 212.00 L 958.60 206.60 L 954.70 196.30 L 948.40 183.60 L 932.10 156.20 L 929.20 150.60 L 926.60 143.80 L 926.00 141.10 L 926.00 139.00 L 926.30 137.30 L 927.00 135.80 L 928.00 134.50 L 929.90 133.20 L 932.20 132.30 L 935.00 132.00 L 937.90 132.20 L 941.10 132.90 L 944.80 134.40 L 948.20 136.20 L 951.90 138.80 L 955.90 142.10 L 959.40 145.80 L 963.10 150.40 L 966.80 155.80 L 970.00 161.50 L 973.10 168.10 L 976.00 175.70 L 977.90 181.50 L 981.00 194.80 L 982.20 202.50 L 983.20 212.20 L 983.80 222.90 L 984.00 234.60 L 983.50 247.40 L 982.50 261.50 L 980.90 276.80 L 978.50 293.50 L 975.40 311.70 L 971.40 331.40 L 966.50 352.80 L 960.70 376.00 Z" fill="#000000" fill-rule="nonzero" node-id="804" stroke="none" target-height="244" target-width="58" target-x="926" target-y="132"></path></clipPath><clipPath id="SVGID_132_" node-id="367"><path d="M 1071.00 369.00 L 1096.00 388.10 L 1059.50 424.60 L 1072.40 432.60 L 1066.80 437.30 L 1062.00 442.00 L 1058.10 446.70 L 1054.80 451.30 L 1052.20 455.80 L 1050.20 460.40 L 1048.80 465.00 L 1048.30 460.60 L 1048.30 456.00 L 1048.80 451.10 L 1050.00 446.00 L 1051.80 440.50 L 1054.40 434.60 L 1038.00 426.20 L 1039.90 420.00 L 1042.50 413.20 L 1046.10 405.80 L 1050.50 397.70 L 1056.10 389.00 L 1062.90 379.40 L 1071.00 369.00 Z" fill="#000000" fill-rule="nonzero" node-id="808" stroke="none" target-height="96" target-width="58" target-x="1038" target-y="369"></path></clipPath><clipPath id="SVGID_134_" node-id="373"><path d="M 860.00 262.00 L 859.70 265.70 L 858.70 269.00 L 857.30 272.10 L 855.30 274.90 L 852.90 277.30 L 850.10 279.30 L 847.00 280.70 L 843.70 281.70 L 840.00 282.00 L 836.30 281.70 L 833.00 280.70 L 829.90 279.30 L 827.10 277.30 L 824.70 274.90 L 822.70 272.10 L 821.30 269.00 L 820.30 265.70 L 820.00 262.00 L 820.30 258.30 L 821.30 255.00 L 822.70 251.90 L 824.70 249.10 L 827.10 246.70 L 829.90 244.70 L 833.00 243.30 L 836.30 242.30 L 840.00 242.00 L 843.70 242.30 L 847.00 243.30 L 850.10 244.70 L 852.90 246.70 L 855.30 249.10 L 857.30 251.90 L 858.70 255.00 L 859.70 258.30 L 860.00 262.00 Z" fill="#000000" fill-rule="nonzero" node-id="812" stroke="none" target-height="40" target-width="40" target-x="820" target-y="242"></path></clipPath><clipPath id="SVGID_136_" node-id="379"><path d="M 1003.00 397.50 L 1002.70 400.30 L 1002.00 402.90 L 1000.90 405.30 L 999.30 407.50 L 997.50 409.30 L 995.30 410.90 L 992.90 412.00 L 990.30 412.70 L 987.50 413.00 L 984.70 412.70 L 982.10 412.00 L 979.70 410.90 L 977.50 409.30 L 975.70 407.50 L 974.10 405.30 L 973.00 402.90 L 972.30 400.30 L 972.00 397.50 L 972.30 394.70 L 973.00 392.10 L 974.10 389.70 L 975.70 387.50 L 977.50 385.70 L 979.70 384.10 L 982.10 383.00 L 984.70 382.30 L 987.50 382.00 L 990.30 382.30 L 992.90 383.00 L 995.30 384.10 L 997.50 385.70 L 999.30 387.50 L 1000.90 389.70 L 1002.00 392.10 L 1002.70 394.70 L 1003.00 397.50 Z" fill="#000000" fill-rule="nonzero" node-id="816" stroke="none" target-height="31" target-width="31" target-x="972" target-y="382"></path></clipPath><clipPath id="SVGID_138_" node-id="385"><path d="M 1029.00 313.50 L 1028.40 317.20 L 1026.60 320.30 L 1024.00 322.60 L 1022.50 323.30 L 1019.00 324.00 L 1015.50 323.30 L 1012.60 321.50 L 1010.40 318.80 L 1009.20 315.40 L 1009.20 311.60 L 1009.60 309.80 L 1011.40 306.70 L 1014.00 304.40 L 1015.50 303.70 L 1019.00 303.00 L 1022.50 303.70 L 1024.00 304.40 L 1026.60 306.70 L 1028.40 309.80 L 1029.00 313.50 Z" fill="#000000" fill-rule="nonzero" node-id="820" stroke="none" target-height="21" target-width="19.799988" target-x="1009.2" target-y="303"></path></clipPath><clipPath id="SVGID_140_" node-id="391"><path d="M 1022.00 342.50 L 1021.80 344.00 L 1020.40 346.40 L 1018.00 347.80 L 1016.50 348.00 L 1013.70 347.30 L 1011.70 345.30 L 1011.20 344.00 L 1011.00 342.50 L 1011.70 339.70 L 1013.70 337.70 L 1016.50 337.00 L 1018.00 337.20 L 1020.40 338.60 L 1021.80 341.00 L 1022.00 342.50 Z" fill="#000000" fill-rule="nonzero" node-id="824" stroke="none" target-height="11" target-width="11" target-x="1011" target-y="337"></path></clipPath><clipPath id="SVGID_142_" node-id="397"><path d="M 928.00 279.50 L 927.70 281.30 L 927.10 282.80 L 925.90 284.10 L 924.50 285.10 L 922.90 285.70 L 921.00 286.00 L 919.10 285.70 L 917.50 285.10 L 916.10 284.10 L 914.90 282.80 L 914.30 281.30 L 914.00 279.50 L 914.30 277.70 L 914.90 276.20 L 916.10 274.90 L 917.50 273.90 L 919.10 273.30 L 921.00 273.00 L 922.90 273.30 L 924.50 273.90 L 925.90 274.90 L 927.10 276.20 L 927.70 277.70 L 928.00 279.50 Z" fill="#000000" fill-rule="nonzero" node-id="828" stroke="none" target-height="13" target-width="14" target-x="914" target-y="273"></path></clipPath><clipPath id="SVGID_144_" node-id="403"><path d="M 1026.00 573.00 L 1025.70 576.10 L 1024.90 578.90 L 1023.70 581.60 L 1022.00 584.00 L 1020.00 586.00 L 1017.60 587.70 L 1014.90 588.90 L 1012.10 589.70 L 1009.00 590.00 L 1005.90 589.70 L 1003.10 588.90 L 1000.40 587.70 L 998.00 586.00 L 996.00 584.00 L 994.30 581.60 L 993.10 578.90 L 992.30 576.10 L 992.00 573.00 L 992.30 569.90 L 993.10 567.10 L 994.30 564.40 L 996.00 562.00 L 998.00 560.00 L 1000.40 558.30 L 1003.10 557.10 L 1005.90 556.30 L 1009.00 556.00 L 1012.10 556.30 L 1014.90 557.10 L 1017.60 558.30 L 1020.00 560.00 L 1022.00 562.00 L 1023.70 564.40 L 1024.90 567.10 L 1025.70 569.90 L 1026.00 573.00 Z" fill="#000000" fill-rule="nonzero" node-id="832" stroke="none" target-height="34" target-width="34" target-x="992" target-y="556"></path></clipPath><clipPath id="SVGID_146_" node-id="409"><path d="M 996.00 610.50 L 995.70 612.80 L 994.80 614.80 L 993.50 616.50 L 991.80 617.80 L 989.80 618.70 L 987.50 619.00 L 985.20 618.70 L 983.20 617.80 L 981.50 616.50 L 980.20 614.80 L 979.30 612.80 L 979.00 610.50 L 979.30 608.20 L 980.20 606.20 L 981.50 604.50 L 983.20 603.20 L 985.20 602.30 L 987.50 602.00 L 989.80 602.30 L 991.80 603.20 L 993.50 604.50 L 994.80 606.20 L 995.70 608.20 L 996.00 610.50 Z" fill="#000000" fill-rule="nonzero" node-id="836" stroke="none" target-height="17" target-width="17" target-x="979" target-y="602"></path></clipPath><clipPath id="SVGID_148_" node-id="415"><path d="M 905.90 460.80 L 908.40 455.80 L 910.70 452.10 L 912.80 449.40 L 914.80 447.70 L 916.70 446.60 L 918.50 446.00 L 920.30 446.00 L 922.10 446.40 L 924.00 447.50 L 925.30 448.90 L 926.20 450.70 L 927.00 455.10 L 926.90 457.60 L 926.20 461.30 L 925.10 464.90 L 923.60 468.10 L 922.10 470.40 L 918.40 475.10 L 914.00 479.90 L 911.60 481.90 L 909.30 483.30 L 907.70 483.80 L 906.20 483.90 L 904.70 483.60 L 903.60 482.90 L 902.70 481.70 L 902.10 480.00 L 902.00 477.30 L 902.40 473.50 L 903.60 468.10 L 905.90 460.80 Z" fill="#000000" fill-rule="nonzero" node-id="840" stroke="none" target-height="37.899994" target-width="25" target-x="902" target-y="446"></path></clipPath><clipPath id="SVGID_150_" node-id="421"><path d="M 757.70 476.00 L 757.20 481.30 L 756.30 485.80 L 755.00 489.70 L 753.40 492.90 L 751.40 495.70 L 749.20 498.00 L 746.50 499.80 L 743.50 501.30 L 740.00 502.40 L 744.30 503.20 L 747.90 504.40 L 750.90 506.00 L 753.30 508.00 L 755.40 510.30 L 757.00 513.10 L 758.10 516.40 L 758.90 520.40 L 759.10 525.00 L 760.10 519.00 L 761.40 514.20 L 762.90 510.40 L 764.60 507.40 L 766.30 505.10 L 768.30 503.40 L 770.30 502.10 L 772.50 501.40 L 775.00 501.10 L 771.50 500.40 L 768.50 499.30 L 766.00 497.70 L 763.70 495.70 L 761.80 493.10 L 760.20 490.00 L 759.00 486.20 L 758.10 481.60 L 757.70 476.00 Z" fill="#000000" fill-rule="nonzero" node-id="844" stroke="none" target-height="49" target-width="35" target-x="740" target-y="476"></path></clipPath><clipPath id="SVGID_152_" node-id="427"><path d="M 778.20 386.00 L 777.70 391.40 L 776.80 396.00 L 775.50 400.00 L 773.80 403.30 L 771.80 406.10 L 769.40 408.40 L 766.70 410.40 L 763.60 411.90 L 760.00 413.00 L 764.40 413.80 L 768.10 415.00 L 771.20 416.70 L 773.70 418.70 L 775.80 421.10 L 777.40 423.90 L 778.60 427.30 L 779.40 431.30 L 779.60 436.00 L 780.70 429.90 L 782.00 425.00 L 783.50 421.10 L 785.20 418.10 L 787.10 415.70 L 789.00 414.00 L 791.10 412.70 L 793.50 411.90 L 796.00 411.60 L 792.40 410.90 L 789.40 409.70 L 786.70 408.10 L 784.40 406.00 L 782.40 403.40 L 780.80 400.30 L 779.50 396.40 L 778.60 391.70 L 778.20 386.00 Z" fill="#000000" fill-rule="nonzero" node-id="848" stroke="none" target-height="50" target-width="36" target-x="760" target-y="386"></path></clipPath><clipPath id="SVGID_154_" node-id="433"><path d="M 205.10 429.00 L 205.00 399.30 L 205.40 373.20 L 206.30 350.40 L 207.70 330.50 L 209.40 313.30 L 211.40 298.60 L 213.70 286.10 L 216.20 275.50 L 218.80 266.60 L 221.50 259.20 L 224.30 253.20 L 238.50 229.70 L 243.40 220.40 L 247.50 211.50 L 249.80 205.50 L 252.90 194.80 L 253.80 189.50 L 254.00 184.80 L 253.70 180.60 L 253.00 177.50 L 252.00 174.70 L 250.50 172.30 L 248.70 170.10 L 246.50 168.30 L 243.90 166.70 L 240.60 165.40 L 236.70 164.40 L 232.70 164.00 L 228.90 164.30 L 225.10 165.20 L 221.30 166.70 L 217.80 168.70 L 214.20 171.40 L 210.80 174.60 L 207.30 178.60 L 204.20 182.70 L 198.30 192.80 L 195.50 198.80 L 192.20 206.90 L 189.30 216.00 L 186.70 226.00 L 184.60 236.20 L 183.00 247.20 L 181.80 259.10 L 181.10 271.00 L 181.00 283.50 L 181.50 296.70 L 183.00 317.50 L 185.00 337.00 L 187.50 355.20 L 190.30 372.10 L 193.50 387.90 L 197.10 402.60 L 200.90 416.30 L 205.10 429.00 Z" fill="#000000" fill-rule="nonzero" node-id="852" stroke="none" target-height="265" target-width="73" target-x="181" target-y="164"></path></clipPath><clipPath id="SVGID_156_" node-id="439"><path d="M 132.50 434.80 L 127.40 441.20 L 125.40 444.40 L 123.90 448.00 L 123.30 450.40 L 123.10 456.40 L 123.60 459.50 L 126.30 467.50 L 131.10 476.70 L 134.70 482.60 L 140.90 491.50 L 149.50 502.80 L 153.60 507.50 L 158.50 512.30 L 164.30 517.20 L 171.10 522.20 L 179.00 527.30 L 188.00 532.40 L 198.30 537.60 L 210.10 542.90 L 223.40 548.30 L 238.40 553.70 L 255.20 559.20 L 274.00 564.70 L 294.90 570.20 L 318.10 575.70 L 343.70 581.20 L 352.90 583.60 L 361.80 586.50 L 370.50 590.00 L 379.00 594.00 L 387.30 598.50 L 395.30 603.60 L 403.20 609.30 L 410.90 615.50 L 418.50 622.40 L 425.90 630.00 L 433.10 638.20 L 440.20 647.10 L 447.10 656.80 L 453.80 667.30 L 460.40 678.60 L 466.80 690.90 L 473.00 704.00 L 470.20 692.90 L 467.00 682.40 L 463.40 672.20 L 459.30 662.60 L 454.70 653.30 L 449.70 644.40 L 444.30 635.90 L 438.50 627.80 L 432.20 620.00 L 425.40 612.50 L 418.10 605.40 L 410.40 598.60 L 402.20 592.10 L 393.40 585.90 L 384.00 580.00 L 374.10 574.50 L 363.60 569.20 L 352.40 564.30 L 340.60 559.70 L 310.90 549.90 L 296.10 544.60 L 283.20 539.70 L 270.50 534.30 L 259.60 529.20 L 250.40 524.50 L 241.30 519.40 L 233.70 514.50 L 227.30 510.00 L 221.10 505.10 L 215.90 500.50 L 211.60 496.10 L 207.50 491.50 L 201.00 482.90 L 186.30 458.40 L 182.80 453.40 L 175.70 445.00 L 168.10 438.20 L 164.20 435.50 L 156.90 431.60 L 153.10 430.20 L 149.50 429.40 L 146.20 429.00 L 143.00 429.20 L 140.00 429.80 L 137.20 430.90 L 134.70 432.60 L 132.50 434.80 Z" fill="#000000" fill-rule="nonzero" node-id="856" stroke="none" target-height="275" target-width="349.9" target-x="123.1" target-y="429"></path></clipPath><clipPath id="SVGID_158_" node-id="445"><path d="M 226.90 405.80 L 230.60 403.80 L 234.60 402.30 L 238.90 401.30 L 245.70 401.00 L 252.80 402.40 L 256.30 403.60 L 259.80 405.40 L 263.30 407.70 L 266.90 410.60 L 270.10 413.70 L 273.30 417.50 L 276.40 422.00 L 279.50 427.40 L 282.10 432.70 L 284.60 438.90 L 286.90 446.10 L 291.00 462.00 L 296.30 479.20 L 301.10 492.40 L 306.80 506.30 L 312.90 520.10 L 326.10 547.40 L 332.80 560.10 L 346.10 583.40 L 358.10 601.80 L 363.60 609.10 L 367.70 613.70 L 404.80 650.40 L 419.20 665.70 L 432.30 680.70 L 438.10 687.90 L 442.70 694.40 L 445.50 698.80 L 449.00 706.00 L 439.10 695.30 L 428.10 684.30 L 416.00 672.90 L 402.80 661.00 L 388.30 648.80 L 372.50 636.10 L 347.10 616.50 L 338.90 609.60 L 322.60 594.30 L 306.90 577.90 L 295.60 565.20 L 284.80 552.30 L 265.00 526.90 L 248.30 503.60 L 241.10 493.00 L 230.30 476.00 L 223.60 464.20 L 220.80 458.00 L 218.50 451.70 L 216.70 445.30 L 215.60 439.20 L 215.10 433.30 L 215.10 428.80 L 215.50 424.70 L 216.30 420.90 L 217.50 417.30 L 219.20 413.90 L 221.30 410.80 L 223.80 408.20 L 226.90 405.80 Z" fill="#000000" fill-rule="nonzero" node-id="860" stroke="none" target-height="305" target-width="233.9" target-x="215.1" target-y="401"></path></clipPath><clipPath id="SVGID_160_" node-id="451"><path d="M 213.00 574.90 L 216.70 571.40 L 219.10 570.00 L 221.60 568.90 L 224.60 568.30 L 228.20 568.10 L 231.80 568.40 L 236.00 569.40 L 241.00 571.20 L 245.70 573.50 L 251.30 576.70 L 257.90 581.20 L 263.70 585.70 L 318.60 633.00 L 341.00 650.70 L 352.30 658.90 L 360.00 664.10 L 374.70 673.00 L 382.20 676.90 L 389.30 680.10 L 403.00 685.30 L 409.30 688.20 L 414.90 691.40 L 420.00 694.90 L 424.40 698.70 L 428.40 702.80 L 432.00 707.20 L 435.00 712.00 L 437.70 717.00 L 439.80 722.50 L 441.60 728.40 L 442.80 734.70 L 443.60 741.60 L 443.90 749.00 L 442.90 742.30 L 441.40 736.10 L 439.50 730.30 L 437.00 724.90 L 434.00 719.80 L 430.50 715.10 L 426.40 710.70 L 421.80 706.50 L 416.60 702.70 L 410.80 699.10 L 404.20 695.80 L 396.80 692.80 L 388.50 690.20 L 379.30 687.90 L 360.40 684.40 L 343.80 680.40 L 335.80 677.90 L 325.30 674.10 L 315.30 670.00 L 305.90 665.60 L 296.60 660.90 L 279.90 651.30 L 268.30 643.80 L 249.20 630.10 L 227.50 613.00 L 224.00 609.60 L 220.90 606.00 L 218.10 602.00 L 213.90 594.20 L 212.40 590.10 L 211.40 586.40 L 211.00 580.50 L 211.40 578.30 L 213.00 574.90 Z" fill="#000000" fill-rule="nonzero" node-id="864" stroke="none" target-height="180.90002" target-width="232.9" target-x="211" target-y="568.1"></path></clipPath><clipPath id="SVGID_162_" node-id="457"><path d="M 362.00 715.00 L 322.30 695.70 L 294.00 681.40 L 274.70 671.10 L 262.20 664.00 L 254.90 659.20 L 251.00 656.10 L 234.20 640.20 L 223.10 631.00 L 217.20 626.90 L 211.40 623.50 L 207.50 621.50 L 203.70 620.20 L 200.10 619.30 L 197.40 619.00 L 194.80 619.20 L 190.00 620.50 L 187.90 621.70 L 185.90 623.50 L 184.00 625.80 L 182.10 628.80 L 181.30 631.00 L 181.00 633.20 L 181.30 635.50 L 182.20 638.00 L 183.90 640.80 L 186.50 643.90 L 190.20 647.30 L 195.40 651.20 L 202.20 655.60 L 211.00 660.60 L 222.20 666.10 L 236.20 672.30 L 253.30 679.20 L 273.90 686.80 L 298.60 695.30 L 327.80 704.70 L 362.00 715.00 Z" fill="#000000" fill-rule="nonzero" node-id="868" stroke="none" target-height="96" target-width="181" target-x="181" target-y="619"></path></clipPath><clipPath id="SVGID_164_" node-id="463"><path d="M 407.00 783.00 L 400.30 777.60 L 392.80 772.30 L 384.70 767.30 L 375.80 762.40 L 366.10 757.80 L 355.50 753.40 L 343.90 749.20 L 331.40 745.30 L 317.90 741.60 L 303.20 738.30 L 277.20 733.30 L 259.70 728.90 L 244.50 723.60 L 231.20 717.70 L 218.00 710.10 L 211.30 705.50 L 205.40 701.00 L 197.00 693.70 L 189.80 686.80 L 170.30 667.00 L 163.90 661.60 L 157.10 656.40 L 142.10 645.80 L 134.40 641.10 L 129.10 638.20 L 119.10 633.80 L 114.00 632.20 L 109.20 631.30 L 104.80 631.00 L 101.50 631.30 L 98.40 632.00 L 95.50 633.10 L 92.70 634.80 L 90.30 636.80 L 88.10 639.40 L 86.00 642.70 L 84.00 646.90 L 83.30 649.40 L 83.00 652.10 L 83.10 654.90 L 83.70 657.90 L 84.90 661.20 L 86.70 664.90 L 89.10 668.80 L 92.30 673.10 L 96.30 677.60 L 101.90 683.20 L 108.60 689.00 L 116.40 695.00 L 124.60 700.70 L 133.50 706.40 L 143.40 712.10 L 153.50 717.40 L 164.20 722.60 L 175.40 727.60 L 186.80 732.20 L 198.50 736.40 L 210.50 740.20 L 222.70 743.60 L 234.80 746.40 L 246.90 748.70 L 256.10 750.00 L 274.10 751.60 L 299.50 752.10 L 314.70 752.80 L 328.50 754.10 L 340.90 755.70 L 352.00 757.70 L 362.00 760.00 L 371.00 762.60 L 378.90 765.50 L 386.00 768.60 L 392.30 771.90 L 397.90 775.40 L 402.70 779.10 L 407.00 783.00 Z" fill="#000000" fill-rule="nonzero" node-id="872" stroke="none" target-height="152" target-width="324" target-x="83" target-y="631"></path></clipPath><clipPath id="SVGID_166_" node-id="469"><path d="M 441.00 833.00 L 439.40 827.50 L 437.20 822.30 L 434.70 817.60 L 431.60 813.10 L 428.00 809.00 L 423.90 805.20 L 419.30 801.60 L 414.00 798.30 L 408.00 795.40 L 401.30 792.70 L 393.80 790.40 L 385.40 788.40 L 376.00 786.80 L 365.50 785.70 L 353.80 785.10 L 340.80 785.00 L 326.50 785.60 L 310.70 786.80 L 297.90 787.00 L 285.60 786.60 L 273.80 785.80 L 262.60 784.40 L 251.90 782.70 L 241.60 780.50 L 231.80 777.80 L 222.40 774.80 L 213.40 771.30 L 204.80 767.50 L 188.60 759.20 L 181.80 756.20 L 176.00 754.30 L 170.10 752.80 L 165.00 752.10 L 160.80 752.00 L 156.60 752.50 L 153.20 753.40 L 150.20 754.70 L 147.60 756.40 L 145.30 758.40 L 142.00 762.90 L 140.00 767.70 L 139.20 771.40 L 139.00 774.60 L 139.20 777.40 L 140.10 781.00 L 142.60 785.90 L 144.70 788.80 L 147.20 791.30 L 150.50 794.00 L 155.00 796.80 L 159.60 799.20 L 165.50 801.60 L 172.90 804.00 L 180.40 805.80 L 189.60 807.50 L 200.60 808.90 L 211.70 809.90 L 224.80 810.40 L 240.20 810.50 L 255.60 810.20 L 273.30 809.20 L 316.70 805.70 L 336.90 804.60 L 354.50 804.20 L 369.80 804.40 L 382.90 805.10 L 394.20 806.20 L 403.70 807.60 L 411.80 809.40 L 418.50 811.40 L 424.00 813.60 L 428.60 816.00 L 432.30 818.50 L 435.20 821.10 L 437.50 823.80 L 439.20 826.70 L 440.30 829.70 L 441.00 833.00 Z" fill="#000000" fill-rule="nonzero" node-id="876" stroke="none" target-height="81" target-width="302" target-x="139" target-y="752"></path></clipPath><clipPath id="SVGID_168_" node-id="475"><path d="M 170.00 366.00 L 169.70 368.90 L 169.00 371.60 L 167.90 374.10 L 166.30 376.30 L 164.50 378.20 L 162.30 379.80 L 159.90 381.00 L 157.30 381.70 L 154.50 382.00 L 151.70 381.70 L 149.10 381.00 L 146.70 379.80 L 144.50 378.20 L 142.70 376.30 L 141.10 374.10 L 140.00 371.60 L 139.30 368.90 L 139.00 366.00 L 139.30 363.10 L 140.00 360.40 L 141.10 357.90 L 142.70 355.70 L 144.50 353.80 L 146.70 352.20 L 149.10 351.00 L 151.70 350.30 L 154.50 350.00 L 157.30 350.30 L 159.90 351.00 L 162.30 352.20 L 164.50 353.80 L 166.30 355.70 L 167.90 357.90 L 169.00 360.40 L 169.70 363.10 L 170.00 366.00 Z" fill="#000000" fill-rule="nonzero" node-id="880" stroke="none" target-height="32" target-width="31" target-x="139" target-y="350"></path></clipPath><clipPath id="SVGID_170_" node-id="481"><path d="M 163.00 240.50 L 162.70 242.80 L 161.90 244.80 L 160.70 246.50 L 159.00 247.80 L 157.10 248.70 L 155.00 249.00 L 152.90 248.70 L 151.00 247.80 L 149.30 246.50 L 148.10 244.80 L 147.30 242.80 L 147.00 240.50 L 147.30 238.20 L 148.10 236.20 L 149.30 234.50 L 151.00 233.20 L 152.90 232.30 L 155.00 232.00 L 157.10 232.30 L 159.00 233.20 L 160.70 234.50 L 161.90 236.20 L 162.70 238.20 L 163.00 240.50 Z" fill="#000000" fill-rule="nonzero" node-id="884" stroke="none" target-height="17" target-width="16" target-x="147" target-y="232"></path></clipPath><clipPath id="SVGID_172_" node-id="487"><path d="M 362.00 512.50 L 361.30 516.20 L 360.50 517.80 L 358.10 520.50 L 354.90 522.30 L 351.00 523.00 L 347.10 522.30 L 343.90 520.50 L 341.50 517.80 L 340.20 514.40 L 340.20 510.60 L 340.70 508.80 L 342.60 505.70 L 345.40 503.40 L 347.10 502.70 L 351.00 502.00 L 354.90 502.70 L 358.10 504.50 L 360.50 507.20 L 361.30 508.80 L 362.00 512.50 Z" fill="#000000" fill-rule="nonzero" node-id="888" stroke="none" target-height="21" target-width="21.799988" target-x="340.2" target-y="502"></path></clipPath><clipPath id="SVGID_174_" node-id="493"><path d="M 152.20 594.70 L 157.70 598.60 L 161.40 601.80 L 163.90 604.60 L 165.30 606.80 L 165.90 608.80 L 166.00 610.50 L 165.50 612.10 L 164.50 613.50 L 163.00 614.60 L 161.00 615.40 L 156.60 615.90 L 150.20 615.20 L 144.40 613.10 L 141.40 610.90 L 135.60 604.70 L 134.00 602.50 L 132.70 600.10 L 132.10 597.70 L 132.10 596.10 L 132.60 594.50 L 133.50 592.80 L 134.80 591.40 L 136.40 590.50 L 138.40 590.00 L 140.80 590.10 L 143.80 590.70 L 147.50 592.20 L 152.20 594.70 Z" fill="#000000" fill-rule="nonzero" node-id="892" stroke="none" target-height="25.900024" target-width="33.899994" target-x="132.1" target-y="590"></path></clipPath><clipPath id="SVGID_176_" node-id="499"><path d="M 132.20 527.00 L 135.60 527.80 L 138.50 529.00 L 140.70 530.50 L 142.60 532.20 L 144.00 534.30 L 145.10 536.70 L 145.80 539.60 L 146.00 543.00 L 145.70 547.10 L 145.10 550.40 L 144.00 553.10 L 142.60 555.20 L 141.00 556.90 L 138.90 558.10 L 136.50 559.00 L 132.70 558.70 L 129.50 558.00 L 126.80 556.80 L 124.40 555.10 L 122.40 553.00 L 120.70 550.30 L 119.40 547.00 L 118.40 543.00 L 118.00 539.30 L 118.10 536.30 L 118.70 533.90 L 119.70 531.90 L 121.10 530.20 L 123.00 528.90 L 125.40 527.90 L 128.40 527.20 L 132.20 527.00 Z" fill="#000000" fill-rule="nonzero" node-id="896" stroke="none" target-height="32" target-width="28" target-x="118" target-y="527"></path></clipPath><clipPath id="SVGID_178_" node-id="505"><path d="M 347.30 275.00 L 346.60 281.40 L 345.50 286.30 L 344.20 290.20 L 342.60 293.10 L 340.80 295.30 L 338.80 296.80 L 336.50 297.80 L 334.00 298.30 L 337.60 300.00 L 340.50 302.00 L 343.00 304.20 L 345.00 306.70 L 346.60 309.50 L 347.80 312.60 L 348.50 316.10 L 348.80 320.00 L 349.70 315.20 L 351.00 311.20 L 352.60 307.80 L 354.40 305.00 L 356.60 302.60 L 359.10 300.70 L 361.80 299.20 L 365.00 298.10 L 361.60 296.80 L 358.60 295.10 L 355.90 293.00 L 353.60 290.40 L 351.50 287.40 L 349.80 283.90 L 348.40 279.80 L 347.30 275.00 Z" fill="#000000" fill-rule="nonzero" node-id="900" stroke="none" target-height="45" target-width="31" target-x="334" target-y="275"></path></clipPath><clipPath id="SVGID_180_" node-id="511"><path d="M 304.10 382.00 L 303.30 389.40 L 302.10 395.40 L 300.60 400.10 L 298.90 403.90 L 297.00 406.80 L 294.80 409.00 L 292.50 410.60 L 289.90 411.60 L 287.00 412.10 L 291.10 414.00 L 294.60 416.30 L 297.60 418.70 L 300.10 421.40 L 302.20 424.40 L 303.80 427.80 L 305.00 431.40 L 305.80 435.50 L 306.10 440.00 L 306.50 434.10 L 307.40 429.10 L 308.60 424.90 L 310.20 421.50 L 312.10 418.70 L 314.40 416.40 L 316.90 414.60 L 319.80 413.20 L 323.10 412.30 L 327.00 411.80 L 322.40 410.80 L 318.50 409.30 L 315.10 407.40 L 312.30 405.20 L 309.80 402.60 L 307.80 399.60 L 306.20 396.10 L 305.00 392.10 L 304.30 387.40 L 304.10 382.00 Z" fill="#000000" fill-rule="nonzero" node-id="904" stroke="none" target-height="58" target-width="40" target-x="287" target-y="382"></path></clipPath><clipPath id="SVGID_182_" node-id="517"><path d="M 475.40 623.00 L 474.70 629.80 L 473.60 635.30 L 472.30 639.60 L 470.70 643.00 L 468.90 645.70 L 467.00 647.70 L 464.90 649.10 L 462.60 650.00 L 460.00 650.50 L 464.10 652.50 L 467.60 654.80 L 470.40 657.50 L 472.80 660.40 L 474.60 663.70 L 476.00 667.30 L 476.80 671.40 L 477.20 676.00 L 477.60 670.50 L 478.40 666.00 L 479.50 662.20 L 481.00 659.00 L 482.70 656.50 L 484.70 654.40 L 487.00 652.70 L 489.60 651.50 L 492.60 650.60 L 496.00 650.20 L 491.90 649.30 L 488.40 647.90 L 485.40 646.30 L 482.80 644.30 L 480.60 641.90 L 478.80 639.10 L 477.30 636.00 L 476.30 632.30 L 475.60 628.00 L 475.40 623.00 Z" fill="#000000" fill-rule="nonzero" node-id="908" stroke="none" target-height="53" target-width="36" target-x="460" target-y="623"></path></clipPath><clipPath id="SVGID_184_" node-id="523"><path d="M 58.00 434.00 L 78.60 426.80 L 86.70 423.00 L 95.40 461.90 L 98.70 458.60 L 101.70 456.30 L 104.30 454.80 L 106.80 454.00 L 109.10 453.70 L 108.10 464.60 L 107.80 473.70 L 108.10 481.20 L 108.80 487.30 L 110.00 492.30 L 111.40 496.30 L 113.10 499.40 L 115.00 501.90 L 109.10 498.70 L 104.20 495.50 L 100.20 492.20 L 96.90 488.90 L 94.30 485.50 L 92.30 482.10 L 90.90 478.60 L 90.10 475.00 L 89.70 471.20 L 75.50 474.60 L 58.00 434.00 Z" fill="#000000" fill-rule="nonzero" node-id="912" stroke="none" target-height="78.899994" target-width="57" target-x="58" target-y="423"></path></clipPath><clipPath id="SVGID_186_" node-id="529"><path d="M 275.90 237.00 L 243.00 252.80 L 279.10 285.00 L 311.00 252.80 Z" fill="#000000" fill-rule="nonzero" node-id="916" stroke="none" target-height="48" target-width="68" target-x="243" target-y="237"></path></clipPath><clipPath id="SVGID_188_" node-id="535"><path d="M 310.90 253.00 L 279.00 269.60 L 279.00 313.00 L 311.00 294.30 Z" fill="#000000" fill-rule="nonzero" node-id="920" stroke="none" target-height="60" target-width="32" target-x="279" target-y="253"></path></clipPath><clipPath id="SVGID_190_" node-id="541"><path d="M 279.00 269.60 L 243.00 253.00 L 243.00 294.80 L 279.00 313.00 Z" fill="#000000" fill-rule="nonzero" node-id="924" stroke="none" target-height="60" target-width="36" target-x="243" target-y="253"></path></clipPath></defs><g node-id="1526"><g clip-path="url(#SVGID_2_)" group-id="1" node-id="932"><g clip-path="url(#SVGID_6_)" group-id="1,40,79,82" node-id="936"><path d="M 315.00 431.00 L 916.00 431.00 L 916.00 1032.00 L 315.00 1032.00 Z" fill="#9124ff" fill-rule="nonzero" group-id="1,40,79,82,96" node-id="938" stroke="none" target-height="601" target-width="601" target-x="315" target-y="431"></path></g><g clip-path="url(#SVGID_10_)" group-id="1,40,79,83" node-id="948"><g clip-path="url(#SVGID_14_)" group-id="1,40,79,83,97,110,121,128" node-id="952"><path d="M 661.00 424.00 L 787.00 424.00 L 787.00 550.00 L 661.00 550.00 Z" fill="#4f069a" fill-rule="nonzero" group-id="1,40,79,83,97,110,121,128,142" node-id="954" stroke="none" target-height="126" target-width="126" target-x="661" target-y="424"></path></g><g clip-path="url(#SVGID_18_)" group-id="1,40,79,83,97,110,121,129" node-id="962"><path d="M 673.90 430.90 L 799.90 430.90 L 799.90 556.90 L 673.90 556.90 Z" fill="#6603c9" fill-rule="nonzero" group-id="1,40,79,83,97,110,121,129,143,156" node-id="964" stroke="none" target-height="126.00003" target-width="126" target-x="673.9" target-y="430.9"></path></g></g><g clip-path="url(#SVGID_22_)" group-id="1,40,79,84" node-id="979"><g clip-path="url(#SVGID_26_)" group-id="1,40,79,84,98,111,122,130" node-id="983"><path d="M 449.00 688.00 L 553.00 688.00 L 553.00 792.00 L 449.00 792.00 Z" fill="#4f069a" fill-rule="nonzero" group-id="1,40,79,84,98,111,122,130,144" node-id="985" stroke="none" target-height="104" target-width="104" target-x="449" target-y="688"></path></g><g clip-path="url(#SVGID_30_)" group-id="1,40,79,84,98,111,122,131" node-id="993"><path d="M 459.90 693.90 L 563.90 693.90 L 563.90 797.90 L 459.90 797.90 Z" fill="#6603c9" fill-rule="nonzero" group-id="1,40,79,84,98,111,122,131,145,157" node-id="995" stroke="none" target-height="104" target-width="104.00003" target-x="459.9" target-y="693.9"></path></g></g><g clip-path="url(#SVGID_34_)" group-id="1,40,79,85" node-id="1010"><g clip-path="url(#SVGID_38_)" group-id="1,40,79,85,99,112,123,132" node-id="1014"><path d="M 583.00 964.00 L 687.00 964.00 L 687.00 1068.00 L 583.00 1068.00 Z" fill="#4f069a" fill-rule="nonzero" group-id="1,40,79,85,99,112,123,132,146" node-id="1016" stroke="none" target-height="104" target-width="104" target-x="583" target-y="964"></path></g><g clip-path="url(#SVGID_42_)" group-id="1,40,79,85,99,112,123,133" node-id="1024"><path d="M 593.90 969.90 L 697.90 969.90 L 697.90 1073.90 L 593.90 1073.90 Z" fill="#6603c9" fill-rule="nonzero" group-id="1,40,79,85,99,112,123,133,147,158" node-id="1026" stroke="none" target-height="104" target-width="104" target-x="593.9" target-y="969.9"></path></g></g><g clip-path="url(#SVGID_46_)" group-id="1,40,79,86" node-id="1041"><g clip-path="url(#SVGID_50_)" group-id="1,40,79,86,100,113,124,134" node-id="1045"><path d="M 300.00 578.00 L 404.00 578.00 L 404.00 682.00 L 300.00 682.00 Z" fill="#4f069a" fill-rule="nonzero" group-id="1,40,79,86,100,113,124,134,148" node-id="1047" stroke="none" target-height="104" target-width="104" target-x="300" target-y="578"></path></g><g clip-path="url(#SVGID_54_)" group-id="1,40,79,86,100,113,124,135" node-id="1055"><path d="M 310.90 583.90 L 414.90 583.90 L 414.90 687.90 L 310.90 687.90 Z" fill="#6603c9" fill-rule="nonzero" group-id="1,40,79,86,100,113,124,135,149,159" node-id="1057" stroke="none" target-height="104" target-width="104" target-x="310.9" target-y="583.9"></path></g></g><g clip-path="url(#SVGID_58_)" group-id="1,40,79,87" node-id="1072"><g clip-path="url(#SVGID_62_)" group-id="1,40,79,87,101,114,125,136" node-id="1076"><path d="M 489.00 562.00 L 565.00 562.00 L 565.00 638.00 L 489.00 638.00 Z" fill="#4f069a" fill-rule="nonzero" group-id="1,40,79,87,101,114,125,136,150" node-id="1078" stroke="none" target-height="76" target-width="76" target-x="489" target-y="562"></path></g><g clip-path="url(#SVGID_66_)" group-id="1,40,79,87,101,114,125,137" node-id="1086"><path d="M 496.00 566.00 L 572.00 566.00 L 572.00 642.00 L 496.00 642.00 Z" fill="#6603c9" fill-rule="nonzero" group-id="1,40,79,87,101,114,125,137,151,160" node-id="1088" stroke="none" target-height="76" target-width="76" target-x="496" target-y="566"></path></g></g><g clip-path="url(#SVGID_70_)" group-id="1,40,79,88" node-id="1103"><g clip-path="url(#SVGID_74_)" group-id="1,40,79,88,102,115,126,138" node-id="1107"><path d="M 776.00 645.00 L 852.00 645.00 L 852.00 721.00 L 776.00 721.00 Z" fill="#4f069a" fill-rule="nonzero" group-id="1,40,79,88,102,115,126,138,152" node-id="1109" stroke="none" target-height="76" target-width="76" target-x="776" target-y="645"></path></g><g clip-path="url(#SVGID_78_)" group-id="1,40,79,88,102,115,126,139" node-id="1117"><path d="M 783.00 649.00 L 859.00 649.00 L 859.00 725.00 L 783.00 725.00 Z" fill="#6603c9" fill-rule="nonzero" group-id="1,40,79,88,102,115,126,139,153,161" node-id="1119" stroke="none" target-height="76" target-width="76" target-x="783" target-y="649"></path></g></g><g clip-path="url(#SVGID_82_)" group-id="1,40,79,89" node-id="1134"><g clip-path="url(#SVGID_86_)" group-id="1,40,79,89,103,116,127,140" node-id="1138"><path d="M 653.00 646.00 L 712.00 646.00 L 712.00 705.00 L 653.00 705.00 Z" fill="#4f069a" fill-rule="nonzero" group-id="1,40,79,89,103,116,127,140,154" node-id="1140" stroke="none" target-height="59" target-width="59" target-x="653" target-y="646"></path></g><g clip-path="url(#SVGID_90_)" group-id="1,40,79,89,103,116,127,141" node-id="1148"><path d="M 657.90 648.90 L 716.90 648.90 L 716.90 707.90 L 657.90 707.90 Z" fill="#6603c9" fill-rule="nonzero" group-id="1,40,79,89,103,116,127,141,155,162" node-id="1150" stroke="none" target-height="59" target-width="59" target-x="657.9" target-y="648.9"></path></g></g></g></g><g node-id="1527"><g clip-path="url(#SVGID_92_)" group-id="2" node-id="1166"><g clip-path="url(#SVGID_96_)" group-id="2,41,80,90" node-id="1170"><path d="M 239.50 618.30 L 1028.60 618.30 L 1028.60 1011.20 L 239.50 1011.20 Z" fill="#7c73ff" fill-rule="nonzero" group-id="2,41,80,90,104" node-id="1172" stroke="none" target-height="392.90002" target-width="789.1" target-x="239.5" target-y="618.3"></path></g><g clip-path="url(#SVGID_100_)" group-id="2,41,80,91" node-id="1180"><path d="M 250.50 608.50 L 1029.80 608.50 L 1029.80 989.00 L 250.50 989.00 Z" fill="#322b41" fill-rule="nonzero" group-id="2,41,80,91,105,117" node-id="1182" stroke="none" target-height="380.5" target-width="779.30005" target-x="250.5" target-y="608.5"></path></g><g clip-path="url(#SVGID_104_)" group-id="2,41,80,92" node-id="1191"><path d="M 883.30 870.10 L 948.90 870.10 L 948.90 901.20 L 883.30 901.20 Z" fill="#5047c5" fill-rule="nonzero" group-id="2,41,80,92,106,118" node-id="1193" stroke="none" target-height="31.100037" target-width="65.60004" target-x="883.3" target-y="870.1"></path></g></g></g><g node-id="1528"><g clip-path="url(#SVGID_106_)" group-id="3" node-id="1205"><g clip-path="url(#SVGID_110_)" group-id="3,42,81,93" node-id="1209"><path d="M 269.00 634.00 L 1004.60 634.00 L 1004.60 971.20 L 269.00 971.20 Z" fill="#c0dcfe" fill-rule="nonzero" group-id="3,42,81,93,107" node-id="1211" stroke="none" target-height="337.2" target-width="735.6" target-x="269" target-y="634"></path></g><g clip-path="url(#SVGID_114_)" group-id="3,42,81,94" node-id="1219"><path d="M 482.60 662.90 L 599.70 662.90 L 599.70 965.00 L 482.60 965.00 Z" fill="#dbebff" fill-rule="nonzero" group-id="3,42,81,94,108,119" node-id="1221" stroke="none" target-height="302.09998" target-width="117.100006" target-x="482.6" target-y="662.9"></path></g><g clip-path="url(#SVGID_118_)" group-id="3,42,81,95" node-id="1230"><path d="M 552.70 671.20 L 631.00 671.20 L 631.00 965.10 L 552.70 965.10 Z" fill="#dbebff" fill-rule="nonzero" group-id="3,42,81,95,109,120" node-id="1232" stroke="none" target-height="293.89996" target-width="78.29999" target-x="552.7" target-y="671.2"></path></g></g></g><g node-id="1529"><g clip-path="url(#SVGID_120_)" group-id="4" node-id="1242"><path d="M 701.00 329.00 L 886.00 329.00 L 886.00 708.00 L 701.00 708.00 Z" fill="#ff37f2" fill-rule="nonzero" group-id="4,43" node-id="1244" stroke="none" target-height="379" target-width="185" target-x="701" target-y="329"></path></g></g><g node-id="1530"><g clip-path="url(#SVGID_122_)" group-id="5" node-id="1250"><path d="M 714.00 298.00 L 940.00 298.00 L 940.00 700.00 L 714.00 700.00 Z" fill="#5affc9" fill-rule="nonzero" group-id="5,44" node-id="1252" stroke="none" target-height="402" target-width="226" target-x="714" target-y="298"></path></g></g><g node-id="1531"><g clip-path="url(#SVGID_124_)" group-id="6" node-id="1258"><path d="M 805.00 428.00 L 1008.00 428.00 L 1008.00 616.00 L 805.00 616.00 Z" fill="#ffea1a" fill-rule="nonzero" group-id="6,45" node-id="1260" stroke="none" target-height="188" target-width="203" target-x="805" target-y="428"></path></g></g><g node-id="1532"><g clip-path="url(#SVGID_126_)" group-id="7" node-id="1266"><path d="M 733.00 531.00 L 981.00 531.00 L 981.00 723.00 L 733.00 723.00 Z" fill="#43fcf6" fill-rule="nonzero" group-id="7,46" node-id="1268" stroke="none" target-height="192" target-width="248" target-x="733" target-y="531"></path></g></g><g node-id="1533"><g clip-path="url(#SVGID_128_)" group-id="8" node-id="1274"><path d="M 736.00 609.00 L 960.00 609.00 L 960.00 796.00 L 736.00 796.00 Z" fill="#f239ff" fill-rule="nonzero" group-id="8,47" node-id="1276" stroke="none" target-height="187" target-width="224" target-x="736" target-y="609"></path></g></g><g node-id="1534"><g clip-path="url(#SVGID_130_)" group-id="9" node-id="1282"><path d="M 921.00 127.00 L 989.00 127.00 L 989.00 381.00 L 921.00 381.00 Z" fill="#ff33e1" fill-rule="nonzero" group-id="9,48" node-id="1284" stroke="none" target-height="254" target-width="68" target-x="921" target-y="127"></path></g></g><g node-id="1535"><g clip-path="url(#SVGID_132_)" group-id="10" node-id="1290"><path d="M 1033.00 364.00 L 1101.00 364.00 L 1101.00 470.00 L 1033.00 470.00 Z" fill="#ff33e1" fill-rule="nonzero" group-id="10,49" node-id="1292" stroke="none" target-height="106" target-width="68" target-x="1033" target-y="364"></path></g></g><g node-id="1536"><g clip-path="url(#SVGID_134_)" group-id="11" node-id="1298"><path d="M 815.00 237.00 L 865.00 237.00 L 865.00 287.00 L 815.00 287.00 Z" fill="#ffe01d" fill-rule="nonzero" group-id="11,50" node-id="1300" stroke="none" target-height="50" target-width="50" target-x="815" target-y="237"></path></g></g><g node-id="1537"><g clip-path="url(#SVGID_136_)" group-id="12" node-id="1306"><path d="M 967.00 377.00 L 1008.00 377.00 L 1008.00 418.00 L 967.00 418.00 Z" fill="#ffe01d" fill-rule="nonzero" group-id="12,51" node-id="1308" stroke="none" target-height="41" target-width="41" target-x="967" target-y="377"></path></g></g><g node-id="1538"><g clip-path="url(#SVGID_138_)" group-id="13" node-id="1314"><path d="M 1004.00 298.00 L 1034.00 298.00 L 1034.00 329.00 L 1004.00 329.00 Z" fill="#43fcf6" fill-rule="nonzero" group-id="13,52" node-id="1316" stroke="none" target-height="31" target-width="30" target-x="1004" target-y="298"></path></g></g><g node-id="1539"><g clip-path="url(#SVGID_140_)" group-id="14" node-id="1322"><path d="M 1006.00 332.00 L 1027.00 332.00 L 1027.00 353.00 L 1006.00 353.00 Z" fill="#43fcf6" fill-rule="nonzero" group-id="14,53" node-id="1324" stroke="none" target-height="21" target-width="21" target-x="1006" target-y="332"></path></g></g><g node-id="1540"><g clip-path="url(#SVGID_142_)" group-id="15" node-id="1330"><path d="M 909.00 268.00 L 933.00 268.00 L 933.00 291.00 L 909.00 291.00 Z" fill="#e93aff" fill-rule="nonzero" group-id="15,54" node-id="1332" stroke="none" target-height="23" target-width="24" target-x="909" target-y="268"></path></g></g><g node-id="1541"><g clip-path="url(#SVGID_144_)" group-id="16" node-id="1338"><path d="M 987.00 551.00 L 1031.00 551.00 L 1031.00 595.00 L 987.00 595.00 Z" fill="#e93aff" fill-rule="nonzero" group-id="16,55" node-id="1340" stroke="none" target-height="44" target-width="44" target-x="987" target-y="551"></path></g></g><g node-id="1542"><g clip-path="url(#SVGID_146_)" group-id="17" node-id="1346"><path d="M 974.00 597.00 L 1001.00 597.00 L 1001.00 624.00 L 974.00 624.00 Z" fill="#e93aff" fill-rule="nonzero" group-id="17,56" node-id="1348" stroke="none" target-height="27" target-width="27" target-x="974" target-y="597"></path></g></g><g node-id="1543"><g clip-path="url(#SVGID_148_)" group-id="18" node-id="1354"><path d="M 897.00 441.00 L 932.00 441.00 L 932.00 489.00 L 897.00 489.00 Z" fill="#43fcf6" fill-rule="nonzero" group-id="18,57" node-id="1356" stroke="none" target-height="48" target-width="35" target-x="897" target-y="441"></path></g></g><g node-id="1544"><g clip-path="url(#SVGID_150_)" group-id="19" node-id="1362"><path d="M 735.00 471.00 L 780.00 471.00 L 780.00 530.00 L 735.00 530.00 Z" fill="#ffea1a" fill-rule="nonzero" group-id="19,58" node-id="1364" stroke="none" target-height="59" target-width="45" target-x="735" target-y="471"></path></g></g><g node-id="1545"><g clip-path="url(#SVGID_152_)" group-id="20" node-id="1370"><path d="M 755.00 381.00 L 801.00 381.00 L 801.00 441.00 L 755.00 441.00 Z" fill="#8639fe" fill-rule="nonzero" group-id="20,59" node-id="1372" stroke="none" target-height="60" target-width="46" target-x="755" target-y="381"></path></g></g><g node-id="1546"><g clip-path="url(#SVGID_154_)" group-id="21" node-id="1378"><path d="M 176.00 159.00 L 259.00 159.00 L 259.00 434.00 L 176.00 434.00 Z" fill="#39fed5" fill-rule="nonzero" group-id="21,60" node-id="1380" stroke="none" target-height="275" target-width="83" target-x="176" target-y="159"></path></g></g><g node-id="1547"><g clip-path="url(#SVGID_156_)" group-id="22" node-id="1386"><path d="M 118.00 424.00 L 478.00 424.00 L 478.00 709.00 L 118.00 709.00 Z" fill="#43fcf6" fill-rule="nonzero" group-id="22,61" node-id="1388" stroke="none" target-height="285" target-width="360" target-x="118" target-y="424"></path></g></g><g node-id="1548"><g clip-path="url(#SVGID_158_)" group-id="23" node-id="1394"><path d="M 210.00 396.00 L 454.00 396.00 L 454.00 711.00 L 210.00 711.00 Z" fill="#f742fc" fill-rule="nonzero" group-id="23,62" node-id="1396" stroke="none" target-height="315" target-width="244" target-x="210" target-y="396"></path></g></g><g node-id="1549"><g clip-path="url(#SVGID_160_)" group-id="24" node-id="1402"><path d="M 206.00 563.00 L 449.00 563.00 L 449.00 754.00 L 206.00 754.00 Z" fill="#9a40ff" fill-rule="nonzero" group-id="24,63" node-id="1404" stroke="none" target-height="191" target-width="243" target-x="206" target-y="563"></path></g></g><g node-id="1550"><g clip-path="url(#SVGID_162_)" group-id="25" node-id="1410"><path d="M 176.00 614.00 L 367.00 614.00 L 367.00 720.00 L 176.00 720.00 Z" fill="#ff54b2" fill-rule="nonzero" group-id="25,64" node-id="1412" stroke="none" target-height="106" target-width="191" target-x="176" target-y="614"></path></g></g><g node-id="1551"><g clip-path="url(#SVGID_164_)" group-id="26" node-id="1418"><path d="M 78.00 626.00 L 412.00 626.00 L 412.00 788.00 L 78.00 788.00 Z" fill="#ffed1d" fill-rule="nonzero" group-id="26,65" node-id="1420" stroke="none" target-height="162" target-width="334" target-x="78" target-y="626"></path></g></g><g node-id="1552"><g clip-path="url(#SVGID_166_)" group-id="27" node-id="1426"><path d="M 134.00 747.00 L 446.00 747.00 L 446.00 838.00 L 134.00 838.00 Z" fill="#ff3ee0" fill-rule="nonzero" group-id="27,66" node-id="1428" stroke="none" target-height="91" target-width="312" target-x="134" target-y="747"></path></g></g><g node-id="1553"><g clip-path="url(#SVGID_168_)" group-id="28" node-id="1434"><path d="M 134.00 345.00 L 175.00 345.00 L 175.00 387.00 L 134.00 387.00 Z" fill="#da2aff" fill-rule="nonzero" group-id="28,67" node-id="1436" stroke="none" target-height="42" target-width="41" target-x="134" target-y="345"></path></g></g><g node-id="1554"><g clip-path="url(#SVGID_170_)" group-id="29" node-id="1442"><path d="M 142.00 227.00 L 168.00 227.00 L 168.00 254.00 L 142.00 254.00 Z" fill="#da2aff" fill-rule="nonzero" group-id="29,68" node-id="1444" stroke="none" target-height="27" target-width="26" target-x="142" target-y="227"></path></g></g><g node-id="1555"><g clip-path="url(#SVGID_172_)" group-id="30" node-id="1450"><path d="M 335.00 497.00 L 367.00 497.00 L 367.00 528.00 L 335.00 528.00 Z" fill="#43fcf6" fill-rule="nonzero" group-id="30,69" node-id="1452" stroke="none" target-height="31" target-width="32" target-x="335" target-y="497"></path></g></g><g node-id="1556"><g clip-path="url(#SVGID_174_)" group-id="31" node-id="1458"><path d="M 127.00 585.00 L 171.00 585.00 L 171.00 621.00 L 127.00 621.00 Z" fill="#e829f5" fill-rule="nonzero" group-id="31,70" node-id="1460" stroke="none" target-height="36" target-width="44" target-x="127" target-y="585"></path></g></g><g node-id="1557"><g clip-path="url(#SVGID_176_)" group-id="32" node-id="1466"><path d="M 113.00 522.00 L 151.00 522.00 L 151.00 564.00 L 113.00 564.00 Z" fill="#ffe834" fill-rule="nonzero" group-id="32,71" node-id="1468" stroke="none" target-height="42" target-width="38" target-x="113" target-y="522"></path></g></g><g node-id="1558"><g clip-path="url(#SVGID_178_)" group-id="33" node-id="1474"><path d="M 329.00 270.00 L 370.00 270.00 L 370.00 325.00 L 329.00 325.00 Z" fill="#43fcf6" fill-rule="nonzero" group-id="33,72" node-id="1476" stroke="none" target-height="55" target-width="41" target-x="329" target-y="270"></path></g></g><g node-id="1559"><g clip-path="url(#SVGID_180_)" group-id="34" node-id="1482"><path d="M 282.00 377.00 L 332.00 377.00 L 332.00 445.00 L 282.00 445.00 Z" fill="#ffed1d" fill-rule="nonzero" group-id="34,73" node-id="1484" stroke="none" target-height="68" target-width="50" target-x="282" target-y="377"></path></g></g><g node-id="1560"><g clip-path="url(#SVGID_182_)" group-id="35" node-id="1490"><path d="M 455.00 618.00 L 501.00 618.00 L 501.00 681.00 L 455.00 681.00 Z" fill="#43fcf6" fill-rule="nonzero" group-id="35,74" node-id="1492" stroke="none" target-height="63" target-width="46" target-x="455" target-y="618"></path></g></g><g node-id="1561"><g clip-path="url(#SVGID_184_)" group-id="36" node-id="1498"><path d="M 53.00 418.00 L 120.00 418.00 L 120.00 507.00 L 53.00 507.00 Z" fill="#7f0aff" fill-rule="nonzero" group-id="36,75" node-id="1500" stroke="none" target-height="89" target-width="67" target-x="53" target-y="418"></path></g></g><g node-id="1562"><g clip-path="url(#SVGID_186_)" group-id="37" node-id="1506"><path d="M 238.00 232.00 L 316.00 232.00 L 316.00 290.00 L 238.00 290.00 Z" fill="#542dd7" fill-rule="nonzero" group-id="37,76" node-id="1508" stroke="none" target-height="58" target-width="78" target-x="238" target-y="232"></path></g></g><g node-id="1563"><g clip-path="url(#SVGID_188_)" group-id="38" node-id="1514"><path d="M 274.00 248.00 L 316.00 248.00 L 316.00 318.00 L 274.00 318.00 Z" fill="#a656f8" fill-rule="nonzero" group-id="38,77" node-id="1516" stroke="none" target-height="70" target-width="42" target-x="274" target-y="248"></path></g></g><g clip-path="url(#SVGID_190_)" group-id="39" node-id="1522"><path d="M 238.00 248.00 L 284.00 248.00 L 284.00 318.00 L 238.00 318.00 Z" fill="#6541dc" fill-rule="nonzero" group-id="39,78" node-id="1524" stroke="none" target-height="70" target-width="46" target-x="238" target-y="248"></path></g></svg>